<?xml version="1.0" encoding="UTF-8"?>
<svg width="24px" height="22px" viewBox="0 0 24 22" version="1.1" xmlns="http://www.w3.org/2000/svg" xmlns:xlink="http://www.w3.org/1999/xlink">
    <!-- Generator: Sketch 51.1 (57501) - http://www.bohemiancoding.com/sketch -->
    <title>access notes</title>
    <desc>Created with Sketch.</desc>
    <defs></defs>
    <g id="new" stroke="none" stroke-width="1" fill="none" fill-rule="evenodd">
        <g id="icons" transform="translate(-94.000000, 1.000000)" fill="#CCCCCC" fill-rule="nonzero" stroke="#CCCCCC" stroke-width="0.3">
            <g id="access-notes" transform="translate(95.000000, 0.000000)">
                <g id="noun_843000_cc" transform="translate(15.777778, 10.302415) scale(-1, 1) rotate(-181.000000) translate(-15.777778, -10.302415) translate(8.777778, 3.302415)">
                    <path d="M11.0998018,13.8223358 C10.8994486,13.8219946 10.7073083,13.7426769 10.5650576,13.6015873 L10.0626645,13.0991942 C9.91208697,12.9474198 9.82790115,12.7420885 9.82859494,12.5282929 L9.82859494,11.8127633 L9.2291486,11.8127633 C8.72961472,11.8127644 8.32436801,11.4083691 8.32331857,10.9088363 L8.32331857,10.307487 L7.61159498,10.307487 C7.39784009,10.3079725 7.19258526,10.2238181 7.04069371,10.0734174 L6.4127023,9.44732904 C4.29551191,10.1775267 1.95453386,9.34953597 0.7672641,7.45056933 C-0.420005664,5.55160268 -0.139221671,3.08443685 1.44439505,1.50082013 C3.02801176,-0.0827965873 5.4951776,-0.36358058 7.39414425,0.823689184 C9.29311089,2.01095895 10.1211016,4.351937 9.39090396,6.46912739 L13.5451622,10.6233857 C13.6857898,10.7651676 13.7650699,10.9565333 13.7659107,11.1562269 L13.7659107,13.1581873 C13.7648619,13.525294 13.4669674,13.8223373 13.0998592,13.8223358 L11.0998018,13.8223358 Z M10.7800971,11.4607075 L10.7800971,12.4692998 L11.181631,12.8708337 L12.8144086,12.8708337 L12.8144086,11.238056 L8.50029797,6.9239454 C8.36310936,6.78725366 8.32246973,6.58104518 8.39753574,6.40252224 C9.11445819,4.70430149 8.52832193,2.73617956 6.99910666,1.70689235 C5.4698914,0.677605141 3.42589426,0.875431734 2.12245045,2.17887554 C0.81900665,3.48231934 0.621180057,5.52631648 1.65046727,7.05553175 C2.67975448,8.58474702 4.64787641,9.17088328 6.34609715,8.45396082 C6.5246201,8.37889482 6.73082858,8.41953444 6.86752032,8.55672305 L7.66678211,9.35598484 L8.67537436,9.35598484 C9.00749043,9.35598484 9.2767237,9.62521811 9.2767237,9.95733418 L9.2767237,10.8612612 L10.1806507,10.8612612 C10.5112821,10.8623059 10.7790524,11.1300761 10.7800971,11.4607075 Z M5.0235092,2.97711458 C5.52467426,3.47873451 5.6016896,4.26452725 5.20745296,4.85390526 C4.81321632,5.44328327 4.05753658,5.67208389 3.4025843,5.40037361 C2.74763201,5.12866334 2.37583461,4.43212311 2.51458183,3.73675401 C2.65332904,3.04138492 3.26397486,2.54087189 3.97305085,2.54132661 C4.36708949,2.54178793 4.74486047,2.69850814 5.0235092,2.97711458 Z M4.34984569,3.65077809 C4.2138701,3.5148025 4.01568137,3.46169799 3.82993526,3.51146851 C3.64418915,3.56123903 3.49910493,3.70632325 3.44933441,3.89206936 C3.39956389,4.07781546 3.4526684,4.2760042 3.58864399,4.41197979 C3.80099453,4.61692233 4.13749515,4.61692233 4.34984569,4.41197979 C4.45202032,4.31142861 4.50971774,4.17417758 4.51007523,4.03082464 C4.51043272,3.8874717 4.45342055,3.7499346 4.3517487,3.64887508 L4.34984569,3.65077809 Z" id="Shape"></path>
                </g>
                <g id="noun_note_1269186">
                    <path d="M14.8702128,19.4851064 L14.8702128,19.0595745 L14.0191489,19.0595745 L0.944680851,19.0595745 L0.944680851,0.940425532 L9.1212766,0.940425532 L9.1212766,5.40851064 C9.1212766,5.64352543 9.31179372,5.83404255 9.54680851,5.83404255 L14.0148936,5.83404255 L14.8702128,5.83404255 L14.8659574,5.40212766 C14.8655003,5.29153181 14.8220027,5.18545874 14.7446809,5.10638298 L9.85106383,0.229787234 C9.78170955,0.161013975 9.69080776,0.118192469 9.59361702,0.108510638 L9.49148936,0.108510638 L0.519148936,0.108510638 C0.284134149,0.108510638 0.0936170213,0.299027766 0.0936170213,0.534042553 L0.0936170213,19.4851064 C0.0936170213,19.7201212 0.284134149,19.9106383 0.519148936,19.9106383 L14.4446809,19.9106383 C14.6796956,19.9106383 14.8702128,19.7201212 14.8702128,19.4851064 Z M9.97659574,1.54042553 L13.4255319,4.98723404 L9.97234043,4.98723404 L9.97659574,1.54042553 Z" id="Shape"></path>
                </g>
            </g>
        </g>
    </g>
</svg>