<svg xmlns="http://www.w3.org/2000/svg" xmlns:xlink="http://www.w3.org/1999/xlink" width="62" height="62" viewBox="0 0 62 62"><defs><path id="vghna" d="M720 249.77a26.68 26.68 0 0 1-18.85-7.8 26.6 26.6 0 0 1-7.9-18.97A26.8 26.8 0 0 1 720 196.24a26.9 26.9 0 0 1 24.14 15.23 26.8 26.8 0 0 1-24.14 38.3zm0-56.77c-16.54 0-30 13.46-30 30s13.46 30 30 30 30-13.46 30-30-13.46-30-30-30z"/><path id="vghnb" d="M707.14 216.14a3.43 3.43 0 1 1 6.86 0 3.43 3.43 0 0 1-6.86 0z"/><path id="vghnc" d="M726.86 216.14a3.43 3.43 0 1 1 6.86 0 3.43 3.43 0 0 1-6.86 0z"/><path id="vghnd" d="M733.48 234.45c.25.46.48.93.69 1.4l2.98-1.34a18.77 18.77 0 0 0-18.12-11.48c-7 .37-13.35 4.88-16.17 11.48l2.98 1.35a15.6 15.6 0 0 1 13.35-9.5 15.51 15.51 0 0 1 14.3 8.09z"/><path id="vghne" d="M709.36 207.8l2-2.77 5.56 4.01-2 2.78z"/><path id="vghnf" d="M723.07 209.05l5.56-4.02 2 2.78-5.55 4.02z"/></defs><g><g transform="translate(-689 -192)"><g><use fill="red" xlink:href="#vghna"/><use fill="#fff" fill-opacity="0" stroke="#f7f8f9" stroke-miterlimit="50" stroke-width=".4" xlink:href="#vghna"/></g><g><use fill="red" xlink:href="#vghnb"/><use fill="#fff" fill-opacity="0" stroke="#f7f8f9" stroke-miterlimit="50" stroke-width=".4" xlink:href="#vghnb"/></g><g><use fill="red" xlink:href="#vghnc"/><use fill="#fff" fill-opacity="0" stroke="#f7f8f9" stroke-miterlimit="50" stroke-width=".4" xlink:href="#vghnc"/></g><g><use fill="red" xlink:href="#vghnd"/><use fill="#fff" fill-opacity="0" stroke="#f7f8f9" stroke-miterlimit="50" stroke-width=".4" xlink:href="#vghnd"/></g><g><use fill="red" xlink:href="#vghne"/><use fill="#fff" fill-opacity="0" stroke="#f7f8f9" stroke-miterlimit="50" stroke-width=".4" xlink:href="#vghne"/></g><g><use fill="red" xlink:href="#vghnf"/><use fill="#fff" fill-opacity="0" stroke="#f7f8f9" stroke-miterlimit="50" stroke-width=".4" xlink:href="#vghnf"/></g></g></g></svg>