<svg xmlns="http://www.w3.org/2000/svg" xmlns:xlink="http://www.w3.org/1999/xlink" width="21" height="21" viewBox="0 0 21 21"><defs><path id="wb58a" d="M717.7 211.35a10.36 10.36 0 0 1-20.7 0 10.36 10.36 0 0 1 20.7 0zm-1.37 0a8.99 8.99 0 0 0-17.96 0 8.99 8.99 0 0 0 17.96 0z"/><path id="wb58b" d="M707.97 211.5l2.93-2.93a.34.34 0 1 0-.47-.47l-2.93 2.93-2.93-2.93a.34.34 0 1 0-.47.47l2.93 2.93-2.93 2.93a.34.34 0 0 0 .47.47l2.93-2.93 2.93 2.93a.34.34 0 1 0 .47-.47z"/></defs><g><g transform="translate(-697 -201)"><g><use fill="#dedede" xlink:href="#wb58a"/></g><g><use fill="#dedede" xlink:href="#wb58b"/><use fill="#fff" fill-opacity="0" stroke="#dedede" stroke-miterlimit="50" stroke-width=".6" xlink:href="#wb58b"/></g></g></g></svg>