<?xml version="1.0" encoding="UTF-8"?>
<svg width="45px" height="22px" viewBox="0 0 45 22" version="1.1" xmlns="http://www.w3.org/2000/svg" xmlns:xlink="http://www.w3.org/1999/xlink">
    <!-- Generator: Sketch 50 (54983) - http://www.bohemiancoding.com/sketch -->
    <title>checkbox@3x</title>
    <desc>Created with Sketch.</desc>
    <defs></defs>
    <g id="checkbox" stroke="none" stroke-width="1" fill="none" fill-rule="evenodd">
        <rect id="unckecked" stroke-opacity="0.5" stroke="#CECECE" fill="#FFFFFF" x="0.5" y="0.5" width="21" height="21" rx="6"></rect>
        <g id="checked" transform="translate(23.000000, 0.000000)">
            <rect id="Rectangle-5-Copy-2" fill="#96A6BB" x="0" y="0" width="22" height="22" rx="6"></rect>
            <path d="M5.14307692,11.2461538 C5.04769231,11.1507692 5,11.0076923 5,10.9123077 C5,10.8169231 5.04769231,10.6738462 5.14307692,10.5784615 L5.81076923,9.91076923 C6.00153846,9.72 6.28769231,9.72 6.47846154,9.91076923 L6.52615385,9.95846154 L9.14923077,12.7723077 C9.24461538,12.8676923 9.38769231,12.8676923 9.48307692,12.7723077 L15.8738462,6.14307692 L15.9215385,6.14307692 L15.9215385,6.14307692 C16.1123077,5.95230769 16.3984615,5.95230769 16.5892308,6.14307692 L17.2569231,6.81076923 C17.4476923,7.00153846 17.4476923,7.28769231 17.2569231,7.47846154 L17.2569231,7.47846154 L9.62615385,15.3953846 C9.53076923,15.4907692 9.43538462,15.5384615 9.29230769,15.5384615 C9.14923077,15.5384615 9.05384615,15.4907692 8.95846154,15.3953846 L5.23846154,11.3892308 L5.14307692,11.2461538 L5.14307692,11.2461538 Z" id="Shape" fill="#FFFFFF" fill-rule="nonzero"></path>
        </g>
    </g>
</svg>