<svg xmlns="http://www.w3.org/2000/svg" xmlns:xlink="http://www.w3.org/1999/xlink" width="16" height="16" viewBox="0 0 16 16"><defs><path id="y0sya" d="M974 187a8 8 0 0 0 0 16 8 8 0 0 0 0-16z"/><path id="y0syb" d="M976.77 194.71l-4.09-3.6a.5.5 0 0 0-.65 0 .37.37 0 0 0 0 .58l3.76 3.31-3.76 3.31a.37.37 0 0 0 0 .57.5.5 0 0 0 .65 0l4.09-3.6a.37.37 0 0 0 0-.57z"/></defs><g><g transform="translate(-966 -187)"><use fill="#45c7f5" xlink:href="#y0sya"/></g><g transform="translate(-966 -187)"><g><use fill="#fff" xlink:href="#y0syb"/><use fill="#fff" fill-opacity="0" stroke="#fff" stroke-miterlimit="50" stroke-width=".4" xlink:href="#y0syb"/></g></g></g></svg>