<?xml version="1.0" encoding="UTF-8"?>
<svg width="60px" height="90px" viewBox="0 0 60 90" version="1.1" xmlns="http://www.w3.org/2000/svg" xmlns:xlink="http://www.w3.org/1999/xlink">
    <!-- Generator: Sketch 50.2 (55047) - http://www.bohemiancoding.com/sketch -->
    <title>side_1@1x</title>
    <desc>Created with Sketch.</desc>
    <defs></defs>
    <g id="side_1" stroke="none" stroke-width="1" fill="none" fill-rule="evenodd">
        <g id="properties" transform="translate(5.000000, 8.000000)" fill="#A1A5AF" fill-rule="nonzero">
            <path d="M19.1136062,12.3520865 L18.5203119,12.3520865 L18.5203119,6.71731351 C18.6898246,6.8407027 18.8593372,6.92296216 19.0712281,6.92296216 C19.3254971,6.92296216 19.5373879,6.8407027 19.7492788,6.67618378 C20.0459259,6.34714595 20.0035478,5.81245946 19.6645224,5.52455135 L13.5620273,0.218778378 C13.2653801,-0.0691297297 12.7568421,-0.0691297297 12.4601949,0.218778378 L9.94565302,2.3803027 L7.45953216,0.218778378 C7.16288499,-0.0691297297 6.65434698,-0.0691297297 6.35769981,0.218778378 L0.297660819,5.48342162 C-0.0837426901,5.81245946 -0.0837426901,6.30601622 0.212904483,6.63505405 C0.509551657,7.00522162 1.06046784,7.00522162 1.39949318,6.71731351 L1.39949318,12.3520865 L0.848576998,12.3520865 C0.382417154,12.3520865 0.00101364522,12.7222541 0.00101364522,13.1746811 C0.00101364522,13.6271081 0.382417154,13.9972757 0.848576998,13.9972757 L2.24705653,13.9972757 L8.34951267,13.9972757 L11.5702534,13.9972757 L17.6727096,13.9972757 L19.0711891,13.9972757 C19.5373489,13.9972757 19.9611306,13.6271081 19.9611306,13.1746811 C19.9611696,12.7222541 19.5797661,12.3520865 19.1136062,12.3520865 Z M3.09461988,5.23664324 L6.90865497,1.90513514 L10.7226901,5.21121622 L10.7226901,12.3521243 L8.34951267,12.3521243 L3.09461988,12.3521243 L3.09461988,5.23664324 Z M12.4178168,12.3520865 L12.4178168,6.68057297 L12.4601949,6.71731351 C12.6297076,6.8407027 12.7992203,6.92296216 13.0111111,6.92296216 C13.2230019,6.92296216 13.477271,6.8407027 13.6467836,6.67618378 C13.9434308,6.34714595 13.9010526,5.81245946 13.5620273,5.52455135 L11.2040156,3.47438378 L13.0111111,1.90513514 L16.8251462,5.23664324 L16.8251462,12.3520865 L12.4178168,12.3520865 Z" id="Shape"></path>
        </g>
        <g id="properties" transform="translate(35.000000, 8.000000)" fill="#FF5960" fill-rule="nonzero">
            <path d="M19.1136062,12.3520865 L18.5203119,12.3520865 L18.5203119,6.71731351 C18.6898246,6.8407027 18.8593372,6.92296216 19.0712281,6.92296216 C19.3254971,6.92296216 19.5373879,6.8407027 19.7492788,6.67618378 C20.0459259,6.34714595 20.0035478,5.81245946 19.6645224,5.52455135 L13.5620273,0.218778378 C13.2653801,-0.0691297297 12.7568421,-0.0691297297 12.4601949,0.218778378 L9.94565302,2.3803027 L7.45953216,0.218778378 C7.16288499,-0.0691297297 6.65434698,-0.0691297297 6.35769981,0.218778378 L0.297660819,5.48342162 C-0.0837426901,5.81245946 -0.0837426901,6.30601622 0.212904483,6.63505405 C0.509551657,7.00522162 1.06046784,7.00522162 1.39949318,6.71731351 L1.39949318,12.3520865 L0.848576998,12.3520865 C0.382417154,12.3520865 0.00101364522,12.7222541 0.00101364522,13.1746811 C0.00101364522,13.6271081 0.382417154,13.9972757 0.848576998,13.9972757 L2.24705653,13.9972757 L8.34951267,13.9972757 L11.5702534,13.9972757 L17.6727096,13.9972757 L19.0711891,13.9972757 C19.5373489,13.9972757 19.9611306,13.6271081 19.9611306,13.1746811 C19.9611696,12.7222541 19.5797661,12.3520865 19.1136062,12.3520865 Z M3.09461988,5.23664324 L6.90865497,1.90513514 L10.7226901,5.21121622 L10.7226901,12.3521243 L8.34951267,12.3521243 L3.09461988,12.3521243 L3.09461988,5.23664324 Z M12.4178168,12.3520865 L12.4178168,6.68057297 L12.4601949,6.71731351 C12.6297076,6.8407027 12.7992203,6.92296216 13.0111111,6.92296216 C13.2230019,6.92296216 13.477271,6.8407027 13.6467836,6.67618378 C13.9434308,6.34714595 13.9010526,5.81245946 13.5620273,5.52455135 L11.2040156,3.47438378 L13.0111111,1.90513514 L16.8251462,5.23664324 L16.8251462,12.3520865 L12.4178168,12.3520865 Z" id="Shape"></path>
        </g>
        <g id="maintenance" transform="translate(5.000000, 35.000000)" fill="#A1A5AF" fill-rule="nonzero">
            <path d="M18.5253165,1.28341463 C18.2549367,1.02268293 17.8855696,0.878780488 17.4855696,0.878780488 C17.0362025,0.878780488 16.5835443,1.06121951 16.2364557,1.38073171 L14.7468354,2.54560976 L14.6888608,2.59634146 C14.3594937,2.91317073 14.2298734,3.35829268 14.3096203,3.80658537 L10.836962,7.05512195 L10.2541772,6.56926829 C10.6718987,4.99536585 10.6205063,2.89878049 9.21164557,1.54146341 C8.18,0.547560976 6.86,0 5.49518987,0 C4.95265823,0 4.4164557,0.0873170732 3.90126582,0.259268293 C3.66531646,0.33804878 3.48455696,0.523414634 3.41797468,0.755365854 C3.35139241,0.987317073 3.40734177,1.23560976 3.56734177,1.4202439 L5.43898734,3.57536585 L5.34683544,4.96146341 L3.79139241,5.13243902 L1.57088608,3.34268293 C1.37924051,3.18804878 1.12126582,3.13414634 0.880506329,3.19878049 C0.639746835,3.26317073 0.447341772,3.43731707 0.36556962,3.66463415 C-0.241012658,5.35219512 0.293417722,7.1697561 1.83189873,8.65097561 C2.66075949,9.45 3.85417722,9.87219512 5.28253165,9.87219512 C5.38708861,9.87219512 5.49240506,9.86707317 5.59772152,9.86219512 C5.54481013,9.90658537 5.49164557,9.9504878 5.44151899,9.99878049 L1.17493671,14.1090244 C-0.00962025316,15.2502439 -0.00962025316,17.1068293 1.17493671,18.2480488 L1.89063291,18.937561 C2.4643038,19.4904878 3.22734177,19.794878 4.03873418,19.794878 C4.85012658,19.794878 5.61316456,19.4904878 6.18683544,18.937561 L10.4531646,14.8270732 C10.6896203,14.5995122 10.8756962,14.3436585 11.0159494,14.0702439 L14.8055696,18.2887805 C14.8177215,18.3021951 14.8303797,18.314878 14.843038,18.327561 C15.2678481,18.7365854 15.9053165,18.9619512 16.6389873,18.9619512 C17.5303797,18.9619512 18.4351899,18.6241463 19,18.0802439 C19.9929114,17.1236585 20.3058228,15.0882927 19.2562025,14.0763415 C19.2427848,14.0639024 19.2298734,14.0517073 19.2159494,14.0407317 L13.6982278,9.44121951 L16.881519,6.28292683 C16.9691139,6.29731707 17.0567089,6.30439024 17.1450633,6.30439024 C17.5263291,6.30439024 17.8782278,6.16707317 18.1364557,5.91853659 L19.3982278,4.42756098 C19.6870886,4.13682927 19.8678481,3.7702439 19.9098734,3.39073171 C19.9587342,2.94634146 19.8091139,2.5204878 19.4994937,2.22243902 L18.5253165,1.28341463 Z M9.37924051,13.792439 L5.11291139,17.9029268 C4.82607595,18.1792683 4.44455696,18.3314634 4.03873418,18.3314634 C3.63291139,18.3314634 3.25164557,18.1792683 2.96455696,17.9029268 L2.24886076,17.2134146 C1.65670886,16.6426829 1.65670886,15.7143902 2.24886076,15.1441463 L6.51544304,11.0334146 C6.80227848,10.7570732 7.18379747,10.604878 7.58936709,10.604878 C7.70860759,10.604878 7.82531646,10.62 7.93848101,10.645122 L9.82151899,12.7414634 C9.82607595,13.1212195 9.67949367,13.5031707 9.37924051,13.792439 Z M17.9255696,17.0456098 C17.6443038,17.3165854 17.1270886,17.4985366 16.638481,17.4985366 C16.3318987,17.4985366 16.0698734,17.4270732 15.9313924,17.3060976 L7.87873418,8.34219512 C7.67696203,8.11756098 7.35392405,8.03268293 7.06227848,8.12756098 C6.49518987,8.31146341 5.87974684,8.40853659 5.28227848,8.40853659 C4.28025316,8.40853659 3.43620253,8.12707317 2.90582278,7.61585366 C2.42582278,7.15341463 1.75164557,6.33536585 1.65088608,5.31536585 L3.06607595,6.45609756 C3.22556962,6.58487805 3.43240506,6.64463415 3.63974684,6.62195122 L6.14987342,6.34585366 C6.51518987,6.30560976 6.79822785,6.01926829 6.82151899,5.66560976 L6.97367089,3.37682927 C6.98607595,3.18926829 6.92329114,3.00463415 6.79822785,2.86073171 L5.58582278,1.46463415 C6.51316456,1.48902439 7.41594937,1.88146341 8.13696203,2.57609756 C9.12886076,3.53195122 9.10734177,5.32219512 8.66734177,6.58121951 C8.56886076,6.86268293 8.65696203,7.17365854 8.89012658,7.36804878 L18.1956962,15.1260976 C18.5331646,15.4819512 18.4534177,16.5368293 17.9255696,17.0456098 Z M18.2939241,3.42317073 L17.1022785,4.83097561 C17.0898734,4.82634146 17.0759494,4.82 17.0607595,4.81121951 L16.5450633,4.51609756 L12.5483544,8.48195122 L11.9896203,8.01634146 L16.1440506,4.1297561 L15.8379747,3.63341463 C15.8291139,3.61829268 15.8220253,3.60487805 15.8177215,3.59317073 L17.2205063,2.49585366 L17.2787342,2.44512195 C17.3544304,2.37268293 17.4301266,2.34756098 17.4772152,2.34341463 L18.4002532,3.23268293 C18.3972152,3.26926829 18.3726582,3.34707317 18.2939241,3.42317073 Z" id="Shape"></path>
        </g>
        <g id="maintenance" transform="translate(35.000000, 35.000000)" fill="#FF5960" fill-rule="nonzero">
            <path d="M18.5253165,1.28341463 C18.2549367,1.02268293 17.8855696,0.878780488 17.4855696,0.878780488 C17.0362025,0.878780488 16.5835443,1.06121951 16.2364557,1.38073171 L14.7468354,2.54560976 L14.6888608,2.59634146 C14.3594937,2.91317073 14.2298734,3.35829268 14.3096203,3.80658537 L10.836962,7.05512195 L10.2541772,6.56926829 C10.6718987,4.99536585 10.6205063,2.89878049 9.21164557,1.54146341 C8.18,0.547560976 6.86,0 5.49518987,0 C4.95265823,0 4.4164557,0.0873170732 3.90126582,0.259268293 C3.66531646,0.33804878 3.48455696,0.523414634 3.41797468,0.755365854 C3.35139241,0.987317073 3.40734177,1.23560976 3.56734177,1.4202439 L5.43898734,3.57536585 L5.34683544,4.96146341 L3.79139241,5.13243902 L1.57088608,3.34268293 C1.37924051,3.18804878 1.12126582,3.13414634 0.880506329,3.19878049 C0.639746835,3.26317073 0.447341772,3.43731707 0.36556962,3.66463415 C-0.241012658,5.35219512 0.293417722,7.1697561 1.83189873,8.65097561 C2.66075949,9.45 3.85417722,9.87219512 5.28253165,9.87219512 C5.38708861,9.87219512 5.49240506,9.86707317 5.59772152,9.86219512 C5.54481013,9.90658537 5.49164557,9.9504878 5.44151899,9.99878049 L1.17493671,14.1090244 C-0.00962025316,15.2502439 -0.00962025316,17.1068293 1.17493671,18.2480488 L1.89063291,18.937561 C2.4643038,19.4904878 3.22734177,19.794878 4.03873418,19.794878 C4.85012658,19.794878 5.61316456,19.4904878 6.18683544,18.937561 L10.4531646,14.8270732 C10.6896203,14.5995122 10.8756962,14.3436585 11.0159494,14.0702439 L14.8055696,18.2887805 C14.8177215,18.3021951 14.8303797,18.314878 14.843038,18.327561 C15.2678481,18.7365854 15.9053165,18.9619512 16.6389873,18.9619512 C17.5303797,18.9619512 18.4351899,18.6241463 19,18.0802439 C19.9929114,17.1236585 20.3058228,15.0882927 19.2562025,14.0763415 C19.2427848,14.0639024 19.2298734,14.0517073 19.2159494,14.0407317 L13.6982278,9.44121951 L16.881519,6.28292683 C16.9691139,6.29731707 17.0567089,6.30439024 17.1450633,6.30439024 C17.5263291,6.30439024 17.8782278,6.16707317 18.1364557,5.91853659 L19.3982278,4.42756098 C19.6870886,4.13682927 19.8678481,3.7702439 19.9098734,3.39073171 C19.9587342,2.94634146 19.8091139,2.5204878 19.4994937,2.22243902 L18.5253165,1.28341463 Z M9.37924051,13.792439 L5.11291139,17.9029268 C4.82607595,18.1792683 4.44455696,18.3314634 4.03873418,18.3314634 C3.63291139,18.3314634 3.25164557,18.1792683 2.96455696,17.9029268 L2.24886076,17.2134146 C1.65670886,16.6426829 1.65670886,15.7143902 2.24886076,15.1441463 L6.51544304,11.0334146 C6.80227848,10.7570732 7.18379747,10.604878 7.58936709,10.604878 C7.70860759,10.604878 7.82531646,10.62 7.93848101,10.645122 L9.82151899,12.7414634 C9.82607595,13.1212195 9.67949367,13.5031707 9.37924051,13.792439 Z M17.9255696,17.0456098 C17.6443038,17.3165854 17.1270886,17.4985366 16.638481,17.4985366 C16.3318987,17.4985366 16.0698734,17.4270732 15.9313924,17.3060976 L7.87873418,8.34219512 C7.67696203,8.11756098 7.35392405,8.03268293 7.06227848,8.12756098 C6.49518987,8.31146341 5.87974684,8.40853659 5.28227848,8.40853659 C4.28025316,8.40853659 3.43620253,8.12707317 2.90582278,7.61585366 C2.42582278,7.15341463 1.75164557,6.33536585 1.65088608,5.31536585 L3.06607595,6.45609756 C3.22556962,6.58487805 3.43240506,6.64463415 3.63974684,6.62195122 L6.14987342,6.34585366 C6.51518987,6.30560976 6.79822785,6.01926829 6.82151899,5.66560976 L6.97367089,3.37682927 C6.98607595,3.18926829 6.92329114,3.00463415 6.79822785,2.86073171 L5.58582278,1.46463415 C6.51316456,1.48902439 7.41594937,1.88146341 8.13696203,2.57609756 C9.12886076,3.53195122 9.10734177,5.32219512 8.66734177,6.58121951 C8.56886076,6.86268293 8.65696203,7.17365854 8.89012658,7.36804878 L18.1956962,15.1260976 C18.5331646,15.4819512 18.4534177,16.5368293 17.9255696,17.0456098 Z M18.2939241,3.42317073 L17.1022785,4.83097561 C17.0898734,4.82634146 17.0759494,4.82 17.0607595,4.81121951 L16.5450633,4.51609756 L12.5483544,8.48195122 L11.9896203,8.01634146 L16.1440506,4.1297561 L15.8379747,3.63341463 C15.8291139,3.61829268 15.8220253,3.60487805 15.8177215,3.59317073 L17.2205063,2.49585366 L17.2787342,2.44512195 C17.3544304,2.37268293 17.4301266,2.34756098 17.4772152,2.34341463 L18.4002532,3.23268293 C18.3972152,3.26926829 18.3726582,3.34707317 18.2939241,3.42317073 Z" id="Shape"></path>
        </g>
        <g id="noun_703984_cc" transform="translate(5.000000, 66.000000)" fill="#A1A5AF" fill-rule="nonzero">
            <path d="M17.9480164,16.5876923 L17.9480164,0 L11.7373461,0 L11.7373461,5.53846154 L6.97674419,5.53846154 L6.97674419,12.3507692 L2.18878249,12.3507692 L2.18878249,16.56 L0,16.56 L0,18 L2.18878249,18 L6.97674419,18 L8.3994528,18 L11.7373461,18 L13.1600547,18 L17.9480164,18 L20,18 L20,16.56 L17.9480164,16.56 L17.9480164,16.5876923 Z M3.61149111,16.5876923 L3.61149111,13.8184615 L6.9493844,13.8184615 L6.9493844,16.5876923 L3.61149111,16.5876923 Z M8.3994528,16.5876923 L8.3994528,12.3784615 L8.3994528,7.00615385 L11.7373461,7.00615385 L11.7373461,16.5876923 L8.3994528,16.5876923 Z M13.1874145,16.5876923 L13.1874145,5.56615385 L13.1874145,1.46769231 L16.5253078,1.46769231 L16.5253078,16.6153846 L13.1874145,16.6153846 L13.1874145,16.5876923 Z" id="Shape"></path>
        </g>
        <g id="noun_703984_cc" transform="translate(35.000000, 66.000000)" fill="#FF5960" fill-rule="nonzero">
            <path d="M17.9480164,16.5876923 L17.9480164,0 L11.7373461,0 L11.7373461,5.53846154 L6.97674419,5.53846154 L6.97674419,12.3507692 L2.18878249,12.3507692 L2.18878249,16.56 L0,16.56 L0,18 L2.18878249,18 L6.97674419,18 L8.3994528,18 L11.7373461,18 L13.1600547,18 L17.9480164,18 L20,18 L20,16.56 L17.9480164,16.56 L17.9480164,16.5876923 Z M3.61149111,16.5876923 L3.61149111,13.8184615 L6.9493844,13.8184615 L6.9493844,16.5876923 L3.61149111,16.5876923 Z M8.3994528,16.5876923 L8.3994528,12.3784615 L8.3994528,7.00615385 L11.7373461,7.00615385 L11.7373461,16.5876923 L8.3994528,16.5876923 Z M13.1874145,16.5876923 L13.1874145,5.56615385 L13.1874145,1.46769231 L16.5253078,1.46769231 L16.5253078,16.6153846 L13.1874145,16.6153846 L13.1874145,16.5876923 Z" id="Shape"></path>
        </g>
    </g>
</svg>