<?xml version="1.0" standalone="no"?><!-- Generator: Gravit.io --><svg xmlns="http://www.w3.org/2000/svg" xmlns:xlink="http://www.w3.org/1999/xlink" style="isolation:isolate" viewBox="342.8 178.8 47.78 21.799" width="47.78" height="21.799"><g id="door (copy)"><g id="noun_1665888_cc"><path d=" M 358.922 181.544 L 350.621 179.023 C 350.549 179 350.477 179 350.428 179 C 350.068 179 349.779 179.275 349.779 179.619 L 349.779 181.271 L 343.674 181.271 C 343.313 181.271 343 181.546 343 181.89 L 343 197.448 C 343 197.792 343.289 198.09 343.674 198.09 L 349.779 198.09 L 349.779 199.781 C 349.779 200.147 350.092 200.399 350.428 200.399 C 350.501 200.399 350.573 200.399 350.621 200.377 L 358.922 198.227 C 359.187 198.135 359.38 197.906 359.38 197.631 L 359.38 182.14 C 359.38 181.865 359.211 181.635 358.922 181.544 Z  M 344.42 196.76 L 344.42 182.6 L 349.779 182.6 L 349.779 196.76 L 344.42 196.76 Z  M 357.984 197.104 L 351.15 198.795 L 351.15 180.581 L 357.984 182.644 L 357.984 197.104 Z " fill="rgb(255,89,96)" vector-effect="non-scaling-stroke" stroke-width="0.4" stroke="rgb(255,89,96)" stroke-linejoin="miter" stroke-linecap="butt" stroke-miterlimit="4"/><path d=" M 353.274 191.146 C 353.659 191.146 353.996 190.848 353.996 190.458 L 353.996 189.312 C 353.996 188.946 353.683 188.625 353.274 188.625 C 352.889 188.625 352.552 188.923 352.552 189.312 L 352.552 190.458 C 352.552 190.825 352.865 191.146 353.274 191.146 Z " fill="rgb(255,89,96)" vector-effect="non-scaling-stroke" stroke-width="0.4" stroke="rgb(255,89,96)" stroke-linejoin="miter" stroke-linecap="butt" stroke-miterlimit="4"/></g><g id="noun_1665888_cc"><path d=" M 389.922 181.544 L 381.621 179.023 C 381.549 179 381.477 179 381.428 179 C 381.068 179 380.779 179.275 380.779 179.619 L 380.779 181.271 L 374.674 181.271 C 374.313 181.271 374 181.546 374 181.89 L 374 197.448 C 374 197.792 374.289 198.09 374.674 198.09 L 380.779 198.09 L 380.779 199.781 C 380.779 200.147 381.092 200.399 381.428 200.399 C 381.501 200.399 381.573 200.399 381.621 200.377 L 389.922 198.227 C 390.187 198.135 390.38 197.906 390.38 197.631 L 390.38 182.14 C 390.38 181.865 390.211 181.635 389.922 181.544 Z  M 375.42 196.76 L 375.42 182.6 L 380.779 182.6 L 380.779 196.76 L 375.42 196.76 Z  M 388.984 197.104 L 382.15 198.795 L 382.15 180.581 L 388.984 182.644 L 388.984 197.104 Z " fill="rgb(138,142,156)" vector-effect="non-scaling-stroke" stroke-width="0.4" stroke="rgb(138,142,156)" stroke-linejoin="miter" stroke-linecap="butt" stroke-miterlimit="4"/><path d=" M 384.274 191.146 C 384.659 191.146 384.996 190.848 384.996 190.458 L 384.996 189.312 C 384.996 188.946 384.683 188.625 384.274 188.625 C 383.889 188.625 383.552 188.923 383.552 189.312 L 383.552 190.458 C 383.552 190.825 383.865 191.146 384.274 191.146 Z " fill="rgb(138,142,156)" vector-effect="non-scaling-stroke" stroke-width="0.4" stroke="rgb(138,142,156)" stroke-linejoin="miter" stroke-linecap="butt" stroke-miterlimit="4"/></g></g></svg>