<?xml version="1.0" encoding="UTF-8"?>
<svg width="22px" height="21px" viewBox="0 0 22 21" version="1.1" xmlns="http://www.w3.org/2000/svg" xmlns:xlink="http://www.w3.org/1999/xlink">
    <!-- Generator: Sketch 51.1 (57501) - http://www.bohemiancoding.com/sketch -->
    <title>leased</title>
    <desc>Created with Sketch.</desc>
    <defs></defs>
    <g id="new" stroke="none" stroke-width="1" fill="none" fill-rule="evenodd">
        <g id="icons" transform="translate(1.000000, 1.000000)" fill="#CCCCCC" fill-rule="nonzero" stroke="#CCCCCC" stroke-width="0.2">
            <g id="leased">
                <g id="Group">
                    <path d="M16.8181818,0.081388764 C16.7065125,0.0807370787 16.5772511,0.134428404 16.5056818,0.200770787 L12.8693182,3.5715573 C12.77899,3.65611236 12.7262632,3.77862787 12.7272727,3.90161348 L12.7272727,6.68251236 L11.7897727,7.74290562 L8.70738636,5.13054607 C8.61432886,5.05200022 8.48820841,5.01303056 8.36647727,5.02520899 C8.27299659,5.03310337 8.18228886,5.07047461 8.11079545,5.13054607 L0.15625,11.8721191 C0.0538364545,11.9572267 0.000253340909,12.0844052 0,12.2162202 C0,12.4891297 0.230214295,12.6656584 0.454545455,12.6656584 L2.04545455,12.6656584 L2.04545455,19.4072315 C2.04547841,19.6425503 2.26200705,19.8566461 2.5,19.8566697 L14.3181818,19.8566697 C14.5561748,19.8566461 14.7727034,19.6425503 14.7727273,19.4072315 L14.7727273,12.6656584 L16.3636364,12.6656584 C16.5496584,12.6680112 16.7307434,12.5452319 16.795558,12.3728097 C16.8603723,12.2003874 16.8043489,11.9904706 16.6619318,11.8721191 L12.4786932,8.32577079 L13.4161932,7.2724 L15.9090909,7.2724 C16.0277357,7.27145618 16.1452686,7.22239236 16.2286932,7.13897303 L19.8650568,3.54346742 C19.9500186,3.46035124 19.9997866,3.34525798 20,3.22745618 C20.0002143,3.10906135 19.9504464,2.98795708 19.8650568,2.90442247 L17.1377841,0.207793258 C17.0425648,0.113643843 16.9329205,0.0820587191 16.8181818,0.081388764 Z M16.8110795,1.15582697 L18.90625,3.22745618 L15.7173295,6.3735236 L13.6363636,6.3735236 L13.6363636,4.09122022 L16.8110795,1.15582697 Z M8.40909091,6.0715573 L15.1278409,11.766782 L14.3181818,11.766782 C14.0801889,11.7668056 13.8636602,11.9809013 13.8636364,12.2162202 L13.8636364,18.9577933 L10.9090909,18.9577933 L10.9090909,13.5645348 C10.909067,13.329216 10.6925384,13.1151202 10.4545455,13.1150966 L6.36363636,13.1150966 C6.11618432,13.1150966 5.90909091,13.3620047 5.90909091,13.5645348 L5.90909091,18.9577933 L2.95454545,18.9577933 L2.95454545,12.2162202 C2.95452159,11.9809013 2.73799295,11.7668056 2.5,11.766782 L1.69034091,11.766782 L8.40909091,6.0715573 Z M6.81818182,14.013973 L10,14.013973 L10,18.9577933 L6.81818182,18.9577933 L6.81818182,14.013973 Z" id="Shape"></path>
                </g>
            </g>
        </g>
    </g>
</svg>