<?xml version="1.0" encoding="UTF-8"?>
<svg width="14px" height="14px" viewBox="0 0 14 14" version="1.1" xmlns="http://www.w3.org/2000/svg" xmlns:xlink="http://www.w3.org/1999/xlink">
    <!-- Generator: Sketch 50.2 (55047) - http://www.bohemiancoding.com/sketch -->
    <title>noun_1084334_cc</title>
    <desc>Created with Sketch.</desc>
    <defs></defs>
    <g id="property" stroke="none" stroke-width="1" fill="none" fill-rule="evenodd">
        <g id="Dashboard-listings-avaible-to-let-edit" transform="translate(-519.000000, -392.000000)" stroke="#606060" stroke-width="1.2">
            <g id="table" transform="translate(115.000000, 109.000000)">
                <g id="Group-4-Copy-3" transform="translate(35.000000, 270.000000)">
                    <g id="Group-11" transform="translate(360.000000, 2.000000)">
                        <g id="noun_1084334_cc" transform="translate(10.000000, 11.500000)">
                            <path d="M9.85184141,6.373483 L11.6015429,4.62378154 C12.5280909,3.68676883 12.5280909,2.17863935 11.6015429,1.24162664 L11.3009069,0.94099065 C10.3638942,0.0144426037 8.8557647,0.0144426037 7.91875199,0.94099065 C7.91875199,0.94099065 5.81430006,2.86506099 5.24609804,3.61364461 C4.37726002,4.74403593 4.28105651,5.28217435 5.72711562,7.49485524" id="Shape"></path>
                            <path d="M2.73451901,6.05480885 L0.985725462,7.81653575 C0.059658198,8.75354846 0.059658198,10.2616779 0.985725462,11.1986906 L1.28620545,11.4993266 C2.22273195,12.4258747 3.73007886,12.4258747 4.66660536,11.4993266 C4.66660536,11.4993266 6.7699653,9.5752563 7.33787248,8.82667268 C8.20625966,7.69628136 8.30241325,7.15814294 6.85710449,4.94546204" id="Shape"></path>
                        </g>
                    </g>
                </g>
            </g>
        </g>
    </g>
</svg>