<svg xmlns="http://www.w3.org/2000/svg" xmlns:xlink="http://www.w3.org/1999/xlink" width="23" height="23" viewBox="0 0 23 23"><defs><path id="gcr5a" d="M161.5 248a11.53 11.53 0 0 0-11.5 11.42 11.33 11.33 0 0 0 3.32 8.16c2.15 2.2 5.04 3.4 8.1 3.42h.08c6.31 0 11.45-5.14 11.5-11.42A11.53 11.53 0 0 0 161.5 248z"/><path id="gcr5b" d="M156 259.5a1 1 0 0 1 1-1h9a1 1 0 0 1 0 2h-9a1 1 0 0 1-1-1z"/></defs><g><g transform="translate(-150 -248)"><g><use fill="#ffa151" xlink:href="#gcr5a"/></g><g><use fill="#fff" xlink:href="#gcr5b"/></g></g></g></svg>