<?xml version="1.0" encoding="UTF-8"?>
<svg width="60px" height="300px" viewBox="0 0 60 300" version="1.1" xmlns="http://www.w3.org/2000/svg" xmlns:xlink="http://www.w3.org/1999/xlink">
    <!-- Generator: Sketch 50.2 (55047) - http://www.bohemiancoding.com/sketch -->
    <title>side_2@1x</title>
    <desc>Created with Sketch.</desc>
    <defs></defs>
    <g id="side_2" stroke="none" stroke-width="1" fill="none" fill-rule="evenodd">
        <g id="dashboard" transform="translate(3.000000, 5.000000)" fill="#8A8E9C" fill-rule="nonzero">
            <path d="M12.0002018,0.0311448598 L11.9998879,0.0311448598 L11.9997982,0.0311448598 L11.9996637,0.0311448598 C8.83117836,0.0312850467 5.96281384,1.36932243 3.88613353,3.53278037 C3.88541618,3.53352804 3.88460916,3.53413551 3.88389181,3.53488318 C3.88312963,3.53567757 3.88254678,3.53651869 3.8817846,3.53731308 C1.80842203,5.6996028 0.52544347,8.68516355 0.522708577,11.9832009 C0.522708577,11.9867523 0.5222154,11.9902103 0.5222154,11.9937617 C0.5222154,11.9971729 0.522663743,12.0004439 0.522708577,12.0038084 C0.524950292,14.8169393 1.46252534,17.4822664 3.14618811,19.6067991 C3.32790156,19.8360981 3.59829727,19.9688551 3.88362281,19.9688551 L20.1157943,19.9688551 C20.4011199,19.9688551 20.6715156,19.8360981 20.853229,19.6067991 C22.5393129,17.479229 23.4777846,14.8100701 23.4777846,11.9937617 C23.4777846,5.38712617 18.3389659,0.0311448598 12.0002018,0.0311448598 Z M19.6521179,17.9750701 L4.34729922,17.9750701 C3.3035117,16.5275467 2.6565078,14.8133411 2.48295419,12.9906308 L5.30455653,12.9906308 C5.83279435,12.9906308 6.26100682,12.5443224 6.26100682,11.9937617 C6.26100682,11.4432009 5.83279435,10.9968925 5.30455653,10.9968925 L2.48299903,10.9968925 C2.67394834,8.99198598 3.43483138,7.16203271 4.59429142,5.68516355 L5.23631871,6.35432243 C5.60983333,6.7436215 6.21545517,6.7436215 6.58896979,6.35432243 C6.96248441,5.96502336 6.96248441,5.33380841 6.58896979,4.94450935 L5.94689766,4.27530374 C7.36388596,3.06670561 9.11959747,2.27357477 11.0433031,2.07446262 L11.0433031,5.01563084 C11.0433031,5.56619159 11.4715156,6.0125 11.9997534,6.0125 C12.5279912,6.0125 12.9562037,5.56619159 12.9562037,5.01563084 L12.9562037,2.07436916 C14.8798645,2.27338785 16.6356657,3.06651869 18.0527885,4.27511682 L17.410537,4.94450935 C17.0370224,5.33380841 17.0370224,5.96502336 17.410537,6.35432243 C17.7840517,6.7436215 18.3896735,6.7436215 18.7631881,6.35432243 L19.4054844,5.68488318 C20.5652135,7.16184579 21.3262758,8.99193925 21.5173148,10.9968925 L18.6949951,10.9968925 C18.1667573,10.9968925 17.7385448,11.4432009 17.7385448,11.9937617 C17.7385448,12.5443224 18.1667573,12.9906308 18.6949951,12.9906308 L21.5173148,12.9906308 C21.3436715,14.8129206 20.696309,16.5271729 19.6521179,17.9750701 Z" id="Shape"></path>
            <polygon id="Shape" points="12.0000224 12.8196963 14.7048762 7.18030374 9.29512378 10.0004907"></polygon>
        </g>
        <g id="Group-11" transform="translate(5.000000, 35.000000)" fill="#8A8E9C" fill-rule="nonzero">
            <path d="M19.6382813,8.68085938 L14.7446484,5.03910156 L14.7446484,0.851054688 C14.7446875,0.38296875 14.3617188,0 13.8936328,0 C13.4255469,0 13.0425781,0.38296875 13.0425781,0.851054688 L13.0425781,3.77238281 L10.489375,1.87234375 C10.1915234,1.65957031 9.80851563,1.65957031 9.51066406,1.87234375 L0.36171875,8.68085938 C-0.02125,8.93617188 -0.063828125,9.44683594 0.191523438,9.82980469 C0.446835938,10.2127734 0.9575,10.2553516 1.34046875,10 L2.19152344,9.37003906 L2.19152344,19.1489453 C2.19152344,19.6170313 2.57449219,20 3.04257813,20 L8.10640625,20 L11.97875,20 L17,20 C17.4680859,20 17.8510547,19.6170313 17.8936328,19.1489453 L17.8936328,9.43023438 L18.6595703,10 C18.8297656,10.1276563 19,10.1701953 19.1701953,10.1701953 C19.4255078,10.1701953 19.6808203,10.0850781 19.8084766,9.82976563 C20.0638281,9.489375 20.0212891,8.93617188 19.6382813,8.68085938 Z M8.91488281,18.3404297 L8.91488281,14.0851172 L11.1276563,14.0851172 L11.1276563,18.3404297 L8.91488281,18.3404297 Z M16.1914844,18.3404297 L12.8297656,18.3404297 L12.8297656,13.2340625 C12.8297656,12.7659766 12.4467969,12.3830078 11.9787109,12.3830078 L8.10636719,12.3830078 C7.63828125,12.3830078 7.2553125,12.7659766 7.2553125,13.2340625 L7.2553125,18.3404297 L3.85105469,18.3404297 L3.85105469,9.61703125 L16.1914844,9.61703125 L16.1914844,18.3404297 Z M4.15738281,7.91488281 L10.0212891,3.57445312 L13.3042969,6.01648437 C13.3567578,6.06699219 13.4155859,6.11089844 13.4794922,6.14679687 L15.8564453,7.91488281 L4.15738281,7.91488281 Z" id="property"></path>
        </g>
        <g id="people" transform="translate(5.000000, 66.000000)" fill="#8A8E9C" fill-rule="nonzero">
            <path d="M16.3587629,8.26962353 C17.0810309,7.38084706 17.5072165,6.16934118 17.5072165,4.87736471 C17.5072165,2.20764706 15.7008247,0.0355764706 13.4806186,0.0355764706 C11.9404124,0.0355764706 10.6006186,1.08148235 9.92391753,2.61317647 C9.24721649,1.08148235 7.90742268,0.0355764706 6.36721649,0.0355764706 C4.14680412,0.0355764706 2.34061856,2.20764706 2.34061856,4.87736471 C2.34061856,6.17230588 2.76639175,7.38190588 3.48886598,8.26941176 C2.22597938,8.87929412 0,10.0230353 0,13.4665412 L0,14.7371294 L1.2371134,14.7371294 L3.79814433,14.7371294 C3.64618557,15.2553176 3.55628866,15.8499529 3.55628866,16.5373412 L3.55628866,17.8079294 L4.79340206,17.8079294 L9.88701031,17.8079294 L9.95979381,17.8079294 L15.0534021,17.8079294 L16.2905155,17.8079294 L16.2905155,16.5373412 C16.2905155,15.8499529 16.2006186,15.2553176 16.0486598,14.7371294 L18.6105155,14.7371294 L19.8476289,14.7371294 L19.8476289,13.4665412 C19.8476289,10.0232471 17.6216495,8.87950588 16.3587629,8.26962353 Z M4.37546392,13.4665412 L1.2371134,13.4665412 C1.2371134,9.64058824 4.50865979,9.64164706 5.23463918,8.64127059 L5.31773196,8.18512941 C4.29773196,7.65402353 3.57773196,6.37432941 3.57773196,4.87715294 C3.57773196,2.90498824 4.82680412,1.30595294 6.36721649,1.30595294 C7.45835052,1.30595294 8.40020619,2.11023529 8.85814433,3.27938824 C7.15340206,3.84268235 5.89690722,5.72188235 5.89690722,7.94795294 C5.89690722,9.24289412 6.32268041,10.4524941 7.04515464,11.3397882 C6.27195876,11.7133412 5.13876289,12.2878588 4.37546392,13.4665412 Z M9.95979381,16.5373412 L9.88701031,16.5373412 L4.79340206,16.5373412 C4.79340206,12.7116 8.06494845,12.7124471 8.79092784,11.7120706 L8.87402062,11.2559294 C7.85402062,10.7248235 7.13402062,9.44512941 7.13402062,7.94795294 C7.13402062,5.97578824 8.38309278,4.37675294 9.92350515,4.37675294 C11.4639175,4.37675294 12.7129897,5.97578824 12.7129897,7.94795294 C12.7129897,9.432 12.0057732,10.7040706 10.9993814,11.2432235 L11.0940206,11.7618353 C11.8905155,12.7137176 15.0531959,12.7757647 15.0531959,16.5373412 L9.95979381,16.5373412 Z M15.4713402,13.4665412 C14.7080412,12.2880706 13.5746392,11.7135529 12.8016495,11.3402118 C13.5239175,10.4514353 13.9501031,9.23992941 13.9501031,7.94795294 C13.9501031,5.72188235 12.6938144,3.84310588 10.9894845,3.2796 C11.4474227,2.11023529 12.3894845,1.30595294 13.4806186,1.30595294 C15.0212371,1.30595294 16.2701031,2.90498824 16.2701031,4.87715294 C16.2701031,6.36141176 15.5628866,7.63327059 14.5564948,8.17263529 L14.651134,8.69124706 C15.4476289,9.64312941 18.6103093,9.70517647 18.6103093,13.4665412 L15.4713402,13.4665412 Z" id="Shape"></path>
        </g>
        <g id="payments" transform="translate(5.000000, 95.000000)" fill="#8A8E9C" fill-rule="nonzero">
            <path d="M9.9884507,0 C4.48084507,0 0,4.48084507 0,9.9884507 C0,15.4960563 4.48084507,19.9769014 9.9884507,19.9769014 C15.4960563,19.9769014 19.9769014,15.4960563 19.9769014,9.9884507 C19.9769014,4.48084507 15.4961502,0 9.9884507,0 Z M9.9884507,18.6624413 C5.2056338,18.6624413 1.31455399,14.7712676 1.31455399,9.9884507 C1.31455399,5.2056338 5.2056338,1.31455399 9.9884507,1.31455399 C14.7712676,1.31455399 18.6623474,5.2056338 18.6623474,9.9884507 C18.6623474,14.7712676 14.7712676,18.6624413 9.9884507,18.6624413 Z" id="Shape"></path>
            <path d="M10.6457277,9.39868545 L10.6457277,5.66685446 C11.0176526,5.80497653 11.3421596,6.05840376 11.5677934,6.40112676 C11.7675117,6.70431925 12.1751174,6.78826291 12.478216,6.5886385 C12.7814085,6.38901408 12.8653521,5.98140845 12.6656338,5.67821596 C12.1934272,4.96122066 11.4658216,4.47446009 10.6457277,4.3029108 L10.6457277,3.25877934 C10.6457277,2.89577465 10.3514554,2.60150235 9.9884507,2.60150235 C9.62544601,2.60150235 9.33117371,2.89577465 9.33117371,3.25877934 L9.33117371,4.30093897 C7.87643192,4.60422535 6.78018779,5.89615023 6.78018779,7.43953052 C6.78018779,8.9829108 7.87652582,10.2750235 9.33117371,10.5783099 L9.33117371,14.3101408 C8.95924883,14.1720188 8.63474178,13.9185915 8.40910798,13.5758685 C8.20938967,13.2726761 7.80178404,13.1886385 7.49868545,13.3883568 C7.19549296,13.5879812 7.1115493,13.9955869 7.31126761,14.2987793 C7.78347418,15.0157746 8.51107981,15.5025352 9.33117371,15.6740845 L9.33117371,16.7181221 C9.33117371,17.0811268 9.62544601,17.3753991 9.9884507,17.3753991 C10.3514554,17.3753991 10.6457277,17.0811268 10.6457277,16.7181221 L10.6457277,15.6760563 C12.1004695,15.37277 13.1967136,14.0808451 13.1967136,12.5374648 C13.1967136,10.9940845 12.1004695,9.70197183 10.6457277,9.39868545 L10.6457277,9.39868545 Z M8.09474178,7.43953052 C8.09474178,6.62704225 8.61061033,5.93464789 9.33117371,5.66732394 L9.33117371,9.21173709 C8.61061033,8.94441315 8.09474178,8.25201878 8.09474178,7.43953052 L8.09474178,7.43953052 Z M10.6457277,14.3095775 L10.6457277,10.7651643 C11.3662911,11.0324883 11.8821596,11.7248826 11.8821596,12.5373709 C11.8821596,13.3498592 11.366385,14.0422535 10.6457277,14.3095775 Z" id="Shape"></path>
        </g>
        <g id="Group-12" transform="translate(5.000000, 125.000000)" fill="#8A8E9C" fill-rule="nonzero">
            <path d="M18.5253165,1.28341463 C18.2549367,1.02268293 17.8855696,0.878780488 17.4855696,0.878780488 C17.0362025,0.878780488 16.5835443,1.06121951 16.2364557,1.38073171 L14.7468354,2.54560976 L14.6888608,2.59634146 C14.3594937,2.91317073 14.2298734,3.35829268 14.3096203,3.80658537 L10.836962,7.05512195 L10.2541772,6.56926829 C10.6718987,4.99536585 10.6205063,2.89878049 9.21164557,1.54146341 C8.18,0.547560976 6.86,0 5.49518987,0 C4.95265823,0 4.4164557,0.0873170732 3.90126582,0.259268293 C3.66531646,0.33804878 3.48455696,0.523414634 3.41797468,0.755365854 C3.35139241,0.987317073 3.40734177,1.23560976 3.56734177,1.4202439 L5.43898734,3.57536585 L5.34683544,4.96146341 L3.79139241,5.13243902 L1.57088608,3.34268293 C1.37924051,3.18804878 1.12126582,3.13414634 0.880506329,3.19878049 C0.639746835,3.26317073 0.447341772,3.43731707 0.36556962,3.66463415 C-0.241012658,5.35219512 0.293417722,7.1697561 1.83189873,8.65097561 C2.66075949,9.45 3.85417722,9.87219512 5.28253165,9.87219512 C5.38708861,9.87219512 5.49240506,9.86707317 5.59772152,9.86219512 C5.54481013,9.90658537 5.49164557,9.9504878 5.44151899,9.99878049 L1.17493671,14.1090244 C-0.00962025316,15.2502439 -0.00962025316,17.1068293 1.17493671,18.2480488 L1.89063291,18.937561 C2.4643038,19.4904878 3.22734177,19.794878 4.03873418,19.794878 C4.85012658,19.794878 5.61316456,19.4904878 6.18683544,18.937561 L10.4531646,14.8270732 C10.6896203,14.5995122 10.8756962,14.3436585 11.0159494,14.0702439 L14.8055696,18.2887805 C14.8177215,18.3021951 14.8303797,18.314878 14.843038,18.327561 C15.2678481,18.7365854 15.9053165,18.9619512 16.6389873,18.9619512 C17.5303797,18.9619512 18.4351899,18.6241463 19,18.0802439 C19.9929114,17.1236585 20.3058228,15.0882927 19.2562025,14.0763415 C19.2427848,14.0639024 19.2298734,14.0517073 19.2159494,14.0407317 L13.6982278,9.44121951 L16.881519,6.28292683 C16.9691139,6.29731707 17.0567089,6.30439024 17.1450633,6.30439024 C17.5263291,6.30439024 17.8782278,6.16707317 18.1364557,5.91853659 L19.3982278,4.42756098 C19.6870886,4.13682927 19.8678481,3.7702439 19.9098734,3.39073171 C19.9587342,2.94634146 19.8091139,2.5204878 19.4994937,2.22243902 L18.5253165,1.28341463 Z M9.37924051,13.792439 L5.11291139,17.9029268 C4.82607595,18.1792683 4.44455696,18.3314634 4.03873418,18.3314634 C3.63291139,18.3314634 3.25164557,18.1792683 2.96455696,17.9029268 L2.24886076,17.2134146 C1.65670886,16.6426829 1.65670886,15.7143902 2.24886076,15.1441463 L6.51544304,11.0334146 C6.80227848,10.7570732 7.18379747,10.604878 7.58936709,10.604878 C7.70860759,10.604878 7.82531646,10.62 7.93848101,10.645122 L9.82151899,12.7414634 C9.82607595,13.1212195 9.67949367,13.5031707 9.37924051,13.792439 Z M17.9255696,17.0456098 C17.6443038,17.3165854 17.1270886,17.4985366 16.638481,17.4985366 C16.3318987,17.4985366 16.0698734,17.4270732 15.9313924,17.3060976 L7.87873418,8.34219512 C7.67696203,8.11756098 7.35392405,8.03268293 7.06227848,8.12756098 C6.49518987,8.31146341 5.87974684,8.40853659 5.28227848,8.40853659 C4.28025316,8.40853659 3.43620253,8.12707317 2.90582278,7.61585366 C2.42582278,7.15341463 1.75164557,6.33536585 1.65088608,5.31536585 L3.06607595,6.45609756 C3.22556962,6.58487805 3.43240506,6.64463415 3.63974684,6.62195122 L6.14987342,6.34585366 C6.51518987,6.30560976 6.79822785,6.01926829 6.82151899,5.66560976 L6.97367089,3.37682927 C6.98607595,3.18926829 6.92329114,3.00463415 6.79822785,2.86073171 L5.58582278,1.46463415 C6.51316456,1.48902439 7.41594937,1.88146341 8.13696203,2.57609756 C9.12886076,3.53195122 9.10734177,5.32219512 8.66734177,6.58121951 C8.56886076,6.86268293 8.65696203,7.17365854 8.89012658,7.36804878 L18.1956962,15.1260976 C18.5331646,15.4819512 18.4534177,16.5368293 17.9255696,17.0456098 Z M18.2939241,3.42317073 L17.1022785,4.83097561 C17.0898734,4.82634146 17.0759494,4.82 17.0607595,4.81121951 L16.5450633,4.51609756 L12.5483544,8.48195122 L11.9896203,8.01634146 L16.1440506,4.1297561 L15.8379747,3.63341463 C15.8291139,3.61829268 15.8220253,3.60487805 15.8177215,3.59317073 L17.2205063,2.49585366 L17.2787342,2.44512195 C17.3544304,2.37268293 17.4301266,2.34756098 17.4772152,2.34341463 L18.4002532,3.23268293 C18.3972152,3.26926829 18.3726582,3.34707317 18.2939241,3.42317073 Z" id="Shape"></path>
        </g>
        <g id="inspection" transform="translate(5.000000, 155.500000)" fill="#8A8E9C" fill-rule="nonzero">
            <path d="M19.6693548,11.7146172 C19.6693548,11.7146172 16.7016129,1.16519722 16.6653226,1.1025522 C16.3548387,0.563805104 15.7258065,-0.037587007 14.9556452,0.0501160093 C13.8024194,0.183758701 13.3387097,1.68723898 13.1854839,2.1800464 C13.0443548,2.63109049 13.2862903,3.11554524 13.7258065,3.2575406 C14.1653226,3.4037123 14.6330645,3.15313225 14.7701613,2.70208817 C14.9193548,2.22180974 15.0524194,1.9712297 15.1370968,1.84176334 C15.1532258,1.86264501 17.2177419,9.14617169 17.2177419,9.14617169 C16.6935484,8.92482599 16.125,8.79953596 15.5241935,8.79953596 C13.5846774,8.79953596 11.9314516,10.0858469 11.3225806,11.8691415 C10.8709677,11.6352668 10.3991935,11.5266821 9.91935484,11.5475638 C9.4516129,11.5642691 9.03225806,11.6979118 8.68145161,11.8733179 C8.07258065,10.0858469 6.41532258,8.79953596 4.47580645,8.79953596 C3.86693548,8.79953596 3.29032258,8.92482599 2.76209677,9.15452436 L4.73790323,2.10904872 C4.75403226,2.08816705 4.77016129,2.06728538 4.78629032,2.04640371 C4.87096774,2.17587007 5.00403226,2.42645012 5.15322581,2.90672854 C5.29435484,3.35777262 5.76209677,3.60835267 6.19758065,3.46218097 C6.63306452,3.31600928 6.875,2.83573086 6.73790323,2.38468677 C6.58467742,1.89187935 6.11693548,0.388399072 4.96774194,0.254756381 C4.19758065,0.167053364 3.56451613,0.768445476 3.25806452,1.30719258 C3.22177419,1.36983759 0.25,11.9317865 0.25,11.9317865 C0.25,11.9359629 0.245967742,11.9443155 0.245967742,11.9484919 C0.0967741935,12.4037123 0.0161290323,12.8923434 0.0161290323,13.4018561 C0.0201612903,15.936891 2.02016129,18 4.47580645,18 C6.81451613,18 8.73790323,16.1331787 8.91935484,13.7693735 C9.13306452,13.5730858 9.52419355,13.2849188 9.97580645,13.2682135 C10.3387097,13.2556845 10.7096774,13.4269142 11.0846774,13.7777262 C11.2701613,16.137355 13.1895161,18 15.5241935,18 C17.9798387,18 19.9798387,15.936891 19.9798387,13.4018561 C19.9798387,12.8046404 19.8709677,12.2366589 19.6693548,11.7146172 L19.6693548,11.7146172 Z M4.47580645,16.2835267 C2.93548387,16.2835267 1.68145161,14.9888631 1.68145161,13.4018561 C1.68145161,11.8148492 2.93548387,10.5201856 4.47580645,10.5201856 C6.01612903,10.5201856 7.27016129,11.8148492 7.27016129,13.4018561 L7.27016129,13.4060325 C7.26612903,14.9930394 6.01612903,16.2835267 4.47580645,16.2835267 L4.47580645,16.2835267 Z M15.5241935,16.2835267 C13.983871,16.2835267 12.7298387,14.9888631 12.7298387,13.4018561 C12.7298387,11.8148492 13.983871,10.5201856 15.5241935,10.5201856 C17.0645161,10.5201856 18.3145161,11.8148492 18.3145161,13.4018561 C18.3185484,14.9888631 17.0645161,16.2835267 15.5241935,16.2835267 Z" id="Shape"></path>
        </g>
        <g id="key-2" transform="translate(5.000000, 185.000000)" fill="#8A8E9C" fill-rule="nonzero">
            <path d="M16.5509767,3.39190698 C16.0986977,2.93925581 15.4971163,2.68986047 14.8572093,2.68986047 C14.2173953,2.68986047 13.615814,2.93925581 13.1635349,3.39181395 C12.7111628,3.84427907 12.4620465,4.44586047 12.4620465,5.08548837 C12.4620465,5.72530233 12.7112558,6.3267907 13.1634419,6.7787907 C13.6157209,7.23125581 14.2171163,7.48046512 14.8569302,7.48046512 C15.4966512,7.48046512 16.0982326,7.23134884 16.5506047,6.77906977 C17.0031628,6.3267907 17.2523721,5.72530233 17.2523721,5.08548837 C17.2523721,4.44595349 17.0032558,3.84437209 16.5509767,3.39190698 Z M15.5642791,5.79218605 C15.3752558,5.98111628 15.124,6.08511628 14.8568372,6.08511628 C14.5898605,6.08511628 14.3389767,5.9812093 14.1499535,5.79218605 C13.9611163,5.60353488 13.8573023,5.35255814 13.8573023,5.08548837 C13.8573023,4.81851163 13.9613023,4.56734884 14.1502326,4.37823256 C14.3390698,4.18930233 14.5901395,4.0852093 14.8571163,4.0852093 C15.124093,4.0852093 15.3750698,4.18930233 15.564093,4.37832558 C15.7529302,4.56725581 15.8569302,4.8184186 15.8569302,5.08548837 C15.8570233,5.35255814 15.7531163,5.60353488 15.5642791,5.79218605 Z" id="Shape"></path>
            <path d="M18.0944186,1.84855814 C15.6473488,-0.598139535 11.6660465,-0.598511628 9.21916279,1.84818605 C7.43469767,3.63348837 6.90269767,6.29265116 7.824,8.60530233 L5.40874419,11.0203721 L3.1975814,11.0203721 C2.81218605,11.0203721 2.49990698,11.3326512 2.49990698,11.7180465 L2.49990698,13.5204651 L0.697674419,13.5204651 C0.31227907,13.5204651 0,13.8327442 0,14.2181395 L0,16.7186047 L0,19.2182326 C0,19.6036279 0.31227907,19.915907 0.697674419,19.915907 L3.19767442,19.915907 C3.38260465,19.915907 3.55990698,19.8425116 3.6907907,19.711814 L11.3032558,12.1054884 C13.6250233,13.0469767 16.2974884,12.52 18.0945116,10.7229767 C20.5408372,8.27646512 20.5408372,4.29544186 18.0944186,1.84855814 Z M17.1077209,9.73637209 C15.615814,11.2284651 13.347907,11.5948837 11.4645581,10.647907 C11.1957209,10.5130233 10.8707907,10.5651163 10.6580465,10.7777674 L2.90883721,18.5206512 L1.39534884,18.5206512 L1.39534884,16.7186977 L1.39534884,14.915907 L3.19767442,14.915907 C3.58297674,14.915907 3.89534884,14.6036279 3.89534884,14.2182326 L3.89534884,12.415814 L5.69776744,12.415814 C5.8827907,12.415814 6.06018605,12.3423256 6.19106977,12.2115349 L9.14948837,9.25330233 C9.36111628,9.04167442 9.41423256,8.71869767 9.28148837,8.4504186 C8.35274419,6.57404651 8.72427907,4.3172093 10.2059535,2.8347907 C12.1087442,0.932372093 15.2046512,0.932651163 17.1077209,2.83525581 C19.0101395,4.73804651 19.0101395,7.83376744 17.1077209,9.73637209 Z" id="Shape"></path>
        </g>
        <g id="Group-13" transform="translate(5.000000, 217.000000)" fill="#8A8E9C" fill-rule="nonzero">
            <path d="M19.1364562,0.00842105263 L0.822810591,0.00842105263 C0.386965377,0.00842105263 0,0.362105263 0,0.854736842 L0,15.1452632 C0,15.5915789 0.346232179,15.9957895 0.822810591,15.9957895 L19.1405295,15.9957895 C19.6171079,15.9957895 19.9633401,15.5957895 19.9633401,15.1452632 L19.9633401,0.854736842 C19.9592668,0.408421053 19.6130346,0.00842105263 19.1364562,0.00842105263 Z M1.64154786,2.90947368 L6.48065173,7.91157895 L1.64154786,12.9136842 L1.64154786,2.90947368 Z M9.9796334,9.11578947 L2.85132383,1.74736842 L17.107943,1.74736842 L9.9796334,9.11578947 Z M7.64562118,9.11578947 L9.37270876,10.9010526 C9.73523422,11.2757895 10.2240326,11.2715789 10.5824847,10.9010526 L12.2892057,9.13684211 L17.2342159,14.2484211 L2.6802444,14.2484211 L7.64562118,9.11578947 Z M13.4582485,7.93263158 L18.3177189,2.90947368 L18.3177189,12.9557895 L13.4582485,7.93263158 Z" id="message"></path>
        </g>
        <g id="documents" transform="translate(5.000000, 244.000000)" fill="#8A8E9C" fill-rule="nonzero">
            <path d="M19.655814,6.01183673 L13.0093023,0.233469388 C12.8372093,0.0853061224 12.6093023,0 12.372093,0 L0.976744186,0 C0.451162791,0 0.0279069767,0.408571429 0.0279069767,0.915918367 L0.0279069767,21.0840816 C0.0279069767,21.5914286 0.451162791,22 0.976744186,22 L19.0232558,22 C19.5488372,22 19.972093,21.5914286 19.972093,21.0840816 L19.972093,6.69428571 C19.972093,6.43387755 19.855814,6.18693878 19.655814,6.01183673 L19.655814,6.01183673 Z M13.1395349,2.81510204 L17.6790698,6.76163265 L13.1395349,6.76163265 L13.1395349,2.81510204 L13.1395349,2.81510204 Z M18.0697674,20.1681633 L1.93023256,20.1681633 L1.93023256,1.83183673 L11.2418605,1.83183673 L11.2418605,7.67755102 C11.2418605,8.18489796 11.6651163,8.59346939 12.1906977,8.59346939 L18.0744186,8.59346939 L18.0744186,20.1681633 L18.0697674,20.1681633 Z" id="Shape"></path>
            <path d="M3.6372093,11.9159184 C3.6372093,12.4232653 4.06046512,12.8318367 4.58604651,12.8318367 L15.4139535,12.8318367 C15.9395349,12.8318367 16.3627907,12.4232653 16.3627907,11.9159184 C16.3627907,11.4085714 15.9395349,11 15.4139535,11 L4.58604651,11 C4.06046512,11 3.6372093,11.4085714 3.6372093,11.9159184 L3.6372093,11.9159184 Z" id="Shape"></path>
            <path d="M15.4139535,15.4718367 L4.58604651,15.4718367 C4.06046512,15.4718367 3.6372093,15.8804082 3.6372093,16.3877551 C3.6372093,16.895102 4.06046512,17.3036735 4.58604651,17.3036735 L15.4139535,17.3036735 C15.9395349,17.3036735 16.3627907,16.895102 16.3627907,16.3877551 C16.3627907,15.8804082 15.9395349,15.4718367 15.4139535,15.4718367 Z" id="Shape"></path>
        </g>
        <g id="noun_1665888_cc" transform="translate(6.500000, 274.000000)" fill="#8A8E9C" fill-rule="nonzero" stroke="#8A8E9C" stroke-width="0.4">
            <path d="M15.970625,2.65833333 L7.6690625,0.1375 C7.596875,0.114583333 7.5246875,0.114583333 7.4765625,0.114583333 C7.115625,0.114583333 6.826875,0.389583333 6.826875,0.733333333 L6.826875,2.38535812 L0.721875,2.38535812 C0.3609375,2.38535812 0.048125,2.66035812 0.048125,3.00410812 L0.048125,18.5625 C0.048125,18.90625 0.336875,19.2041667 0.721875,19.2041667 L6.826875,19.2041667 L6.826875,20.8952655 C6.826875,21.2619322 7.1396875,21.5140155 7.4765625,21.5140155 C7.54875,21.5140155 7.6209375,21.5140155 7.6690625,21.4910989 L15.970625,19.3416667 C16.2353125,19.25 16.4278125,19.0208333 16.4278125,18.7458333 L16.4278125,3.25416667 C16.4278125,2.97916667 16.259375,2.75 15.970625,2.65833333 Z M1.4678125,17.875 L1.4678125,3.71452479 L6.826875,3.71452479 L6.826875,17.875 L1.4678125,17.875 Z M15.0321875,18.21875 L8.1984375,19.9098489 L8.1984375,1.69583333 L15.0321875,3.75833333 L15.0321875,18.21875 Z" id="Shape"></path>
            <path d="M10.3218735,12.2604167 C10.7068735,12.2604167 11.0437485,11.9625 11.0437485,11.5729167 L11.0437485,10.4270833 C11.0437485,10.0604167 10.730936,9.73958333 10.3218735,9.73958333 C9.93687347,9.73958333 9.59999847,10.0375 9.59999847,10.4270833 L9.59999847,11.5729167 C9.59999847,11.9395833 9.91281097,12.2604167 10.3218735,12.2604167 Z" id="Shape"></path>
        </g>
        <g id="dashboard-copy" transform="translate(33.000000, 5.000000)" fill-rule="nonzero">
            <path d="M12.0002018,0.0311448598 L11.9998879,0.0311448598 L11.9997982,0.0311448598 L11.9996637,0.0311448598 C8.83117836,0.0312850467 5.96281384,1.36932243 3.88613353,3.53278037 C3.88541618,3.53352804 3.88460916,3.53413551 3.88389181,3.53488318 C3.88312963,3.53567757 3.88254678,3.53651869 3.8817846,3.53731308 C1.80842203,5.6996028 0.52544347,8.68516355 0.522708577,11.9832009 C0.522708577,11.9867523 0.5222154,11.9902103 0.5222154,11.9937617 C0.5222154,11.9971729 0.522663743,12.0004439 0.522708577,12.0038084 C0.524950292,14.8169393 1.46252534,17.4822664 3.14618811,19.6067991 C3.32790156,19.8360981 3.59829727,19.9688551 3.88362281,19.9688551 L20.1157943,19.9688551 C20.4011199,19.9688551 20.6715156,19.8360981 20.853229,19.6067991 C22.5393129,17.479229 23.4777846,14.8100701 23.4777846,11.9937617 C23.4777846,5.38712617 18.3389659,0.0311448598 12.0002018,0.0311448598 Z M19.6521179,17.9750701 L4.34729922,17.9750701 C3.3035117,16.5275467 2.6565078,14.8133411 2.48295419,12.9906308 L5.30455653,12.9906308 C5.83279435,12.9906308 6.26100682,12.5443224 6.26100682,11.9937617 C6.26100682,11.4432009 5.83279435,10.9968925 5.30455653,10.9968925 L2.48299903,10.9968925 C2.67394834,8.99198598 3.43483138,7.16203271 4.59429142,5.68516355 L5.23631871,6.35432243 C5.60983333,6.7436215 6.21545517,6.7436215 6.58896979,6.35432243 C6.96248441,5.96502336 6.96248441,5.33380841 6.58896979,4.94450935 L5.94689766,4.27530374 C7.36388596,3.06670561 9.11959747,2.27357477 11.0433031,2.07446262 L11.0433031,5.01563084 C11.0433031,5.56619159 11.4715156,6.0125 11.9997534,6.0125 C12.5279912,6.0125 12.9562037,5.56619159 12.9562037,5.01563084 L12.9562037,2.07436916 C14.8798645,2.27338785 16.6356657,3.06651869 18.0527885,4.27511682 L17.410537,4.94450935 C17.0370224,5.33380841 17.0370224,5.96502336 17.410537,6.35432243 C17.7840517,6.7436215 18.3896735,6.7436215 18.7631881,6.35432243 L19.4054844,5.68488318 C20.5652135,7.16184579 21.3262758,8.99193925 21.5173148,10.9968925 L18.6949951,10.9968925 C18.1667573,10.9968925 17.7385448,11.4432009 17.7385448,11.9937617 C17.7385448,12.5443224 18.1667573,12.9906308 18.6949951,12.9906308 L21.5173148,12.9906308 C21.3436715,14.8129206 20.696309,16.5271729 19.6521179,17.9750701 Z" id="Shape-Copy-3" fill="#FF5A61"></path>
            <polygon id="Shape-Copy-4" fill="#FF5960" points="12.0000224 12.8196963 14.7048762 7.18030374 9.29512378 10.0004907"></polygon>
        </g>
        <g id="Group-11" transform="translate(35.000000, 35.000000)" fill="#FF5960" fill-rule="nonzero">
            <path d="M19.6382813,8.68085938 L14.7446484,5.03910156 L14.7446484,0.851054688 C14.7446875,0.38296875 14.3617188,0 13.8936328,0 C13.4255469,0 13.0425781,0.38296875 13.0425781,0.851054688 L13.0425781,3.77238281 L10.489375,1.87234375 C10.1915234,1.65957031 9.80851563,1.65957031 9.51066406,1.87234375 L0.36171875,8.68085938 C-0.02125,8.93617188 -0.063828125,9.44683594 0.191523438,9.82980469 C0.446835938,10.2127734 0.9575,10.2553516 1.34046875,10 L2.19152344,9.37003906 L2.19152344,19.1489453 C2.19152344,19.6170313 2.57449219,20 3.04257813,20 L8.10640625,20 L11.97875,20 L17,20 C17.4680859,20 17.8510547,19.6170313 17.8936328,19.1489453 L17.8936328,9.43023438 L18.6595703,10 C18.8297656,10.1276563 19,10.1701953 19.1701953,10.1701953 C19.4255078,10.1701953 19.6808203,10.0850781 19.8084766,9.82976563 C20.0638281,9.489375 20.0212891,8.93617188 19.6382813,8.68085938 Z M8.91488281,18.3404297 L8.91488281,14.0851172 L11.1276563,14.0851172 L11.1276563,18.3404297 L8.91488281,18.3404297 Z M16.1914844,18.3404297 L12.8297656,18.3404297 L12.8297656,13.2340625 C12.8297656,12.7659766 12.4467969,12.3830078 11.9787109,12.3830078 L8.10636719,12.3830078 C7.63828125,12.3830078 7.2553125,12.7659766 7.2553125,13.2340625 L7.2553125,18.3404297 L3.85105469,18.3404297 L3.85105469,9.61703125 L16.1914844,9.61703125 L16.1914844,18.3404297 Z M4.15738281,7.91488281 L10.0212891,3.57445312 L13.3042969,6.01648437 C13.3567578,6.06699219 13.4155859,6.11089844 13.4794922,6.14679687 L15.8564453,7.91488281 L4.15738281,7.91488281 Z" id="property-copy"></path>
        </g>
        <g id="people-copy" transform="translate(35.000000, 66.000000)" fill="#FF5960" fill-rule="nonzero">
            <path d="M16.3587629,8.26962353 C17.0810309,7.38084706 17.5072165,6.16934118 17.5072165,4.87736471 C17.5072165,2.20764706 15.7008247,0.0355764706 13.4806186,0.0355764706 C11.9404124,0.0355764706 10.6006186,1.08148235 9.92391753,2.61317647 C9.24721649,1.08148235 7.90742268,0.0355764706 6.36721649,0.0355764706 C4.14680412,0.0355764706 2.34061856,2.20764706 2.34061856,4.87736471 C2.34061856,6.17230588 2.76639175,7.38190588 3.48886598,8.26941176 C2.22597938,8.87929412 0,10.0230353 0,13.4665412 L0,14.7371294 L1.2371134,14.7371294 L3.79814433,14.7371294 C3.64618557,15.2553176 3.55628866,15.8499529 3.55628866,16.5373412 L3.55628866,17.8079294 L4.79340206,17.8079294 L9.88701031,17.8079294 L9.95979381,17.8079294 L15.0534021,17.8079294 L16.2905155,17.8079294 L16.2905155,16.5373412 C16.2905155,15.8499529 16.2006186,15.2553176 16.0486598,14.7371294 L18.6105155,14.7371294 L19.8476289,14.7371294 L19.8476289,13.4665412 C19.8476289,10.0232471 17.6216495,8.87950588 16.3587629,8.26962353 Z M4.37546392,13.4665412 L1.2371134,13.4665412 C1.2371134,9.64058824 4.50865979,9.64164706 5.23463918,8.64127059 L5.31773196,8.18512941 C4.29773196,7.65402353 3.57773196,6.37432941 3.57773196,4.87715294 C3.57773196,2.90498824 4.82680412,1.30595294 6.36721649,1.30595294 C7.45835052,1.30595294 8.40020619,2.11023529 8.85814433,3.27938824 C7.15340206,3.84268235 5.89690722,5.72188235 5.89690722,7.94795294 C5.89690722,9.24289412 6.32268041,10.4524941 7.04515464,11.3397882 C6.27195876,11.7133412 5.13876289,12.2878588 4.37546392,13.4665412 Z M9.95979381,16.5373412 L9.88701031,16.5373412 L4.79340206,16.5373412 C4.79340206,12.7116 8.06494845,12.7124471 8.79092784,11.7120706 L8.87402062,11.2559294 C7.85402062,10.7248235 7.13402062,9.44512941 7.13402062,7.94795294 C7.13402062,5.97578824 8.38309278,4.37675294 9.92350515,4.37675294 C11.4639175,4.37675294 12.7129897,5.97578824 12.7129897,7.94795294 C12.7129897,9.432 12.0057732,10.7040706 10.9993814,11.2432235 L11.0940206,11.7618353 C11.8905155,12.7137176 15.0531959,12.7757647 15.0531959,16.5373412 L9.95979381,16.5373412 Z M15.4713402,13.4665412 C14.7080412,12.2880706 13.5746392,11.7135529 12.8016495,11.3402118 C13.5239175,10.4514353 13.9501031,9.23992941 13.9501031,7.94795294 C13.9501031,5.72188235 12.6938144,3.84310588 10.9894845,3.2796 C11.4474227,2.11023529 12.3894845,1.30595294 13.4806186,1.30595294 C15.0212371,1.30595294 16.2701031,2.90498824 16.2701031,4.87715294 C16.2701031,6.36141176 15.5628866,7.63327059 14.5564948,8.17263529 L14.651134,8.69124706 C15.4476289,9.64312941 18.6103093,9.70517647 18.6103093,13.4665412 L15.4713402,13.4665412 Z" id="Shape-Copy-2"></path>
        </g>
        <g id="payments-copy" transform="translate(35.000000, 95.000000)" fill="#FF5960" fill-rule="nonzero">
            <path d="M9.9884507,0 C4.48084507,0 0,4.48084507 0,9.9884507 C0,15.4960563 4.48084507,19.9769014 9.9884507,19.9769014 C15.4960563,19.9769014 19.9769014,15.4960563 19.9769014,9.9884507 C19.9769014,4.48084507 15.4961502,0 9.9884507,0 Z M9.9884507,18.6624413 C5.2056338,18.6624413 1.31455399,14.7712676 1.31455399,9.9884507 C1.31455399,5.2056338 5.2056338,1.31455399 9.9884507,1.31455399 C14.7712676,1.31455399 18.6623474,5.2056338 18.6623474,9.9884507 C18.6623474,14.7712676 14.7712676,18.6624413 9.9884507,18.6624413 Z" id="Shape"></path>
            <path d="M10.6457277,9.39868545 L10.6457277,5.66685446 C11.0176526,5.80497653 11.3421596,6.05840376 11.5677934,6.40112676 C11.7675117,6.70431925 12.1751174,6.78826291 12.478216,6.5886385 C12.7814085,6.38901408 12.8653521,5.98140845 12.6656338,5.67821596 C12.1934272,4.96122066 11.4658216,4.47446009 10.6457277,4.3029108 L10.6457277,3.25877934 C10.6457277,2.89577465 10.3514554,2.60150235 9.9884507,2.60150235 C9.62544601,2.60150235 9.33117371,2.89577465 9.33117371,3.25877934 L9.33117371,4.30093897 C7.87643192,4.60422535 6.78018779,5.89615023 6.78018779,7.43953052 C6.78018779,8.9829108 7.87652582,10.2750235 9.33117371,10.5783099 L9.33117371,14.3101408 C8.95924883,14.1720188 8.63474178,13.9185915 8.40910798,13.5758685 C8.20938967,13.2726761 7.80178404,13.1886385 7.49868545,13.3883568 C7.19549296,13.5879812 7.1115493,13.9955869 7.31126761,14.2987793 C7.78347418,15.0157746 8.51107981,15.5025352 9.33117371,15.6740845 L9.33117371,16.7181221 C9.33117371,17.0811268 9.62544601,17.3753991 9.9884507,17.3753991 C10.3514554,17.3753991 10.6457277,17.0811268 10.6457277,16.7181221 L10.6457277,15.6760563 C12.1004695,15.37277 13.1967136,14.0808451 13.1967136,12.5374648 C13.1967136,10.9940845 12.1004695,9.70197183 10.6457277,9.39868545 L10.6457277,9.39868545 Z M8.09474178,7.43953052 C8.09474178,6.62704225 8.61061033,5.93464789 9.33117371,5.66732394 L9.33117371,9.21173709 C8.61061033,8.94441315 8.09474178,8.25201878 8.09474178,7.43953052 L8.09474178,7.43953052 Z M10.6457277,14.3095775 L10.6457277,10.7651643 C11.3662911,11.0324883 11.8821596,11.7248826 11.8821596,12.5373709 C11.8821596,13.3498592 11.366385,14.0422535 10.6457277,14.3095775 Z" id="Shape"></path>
        </g>
        <g id="Group-12" transform="translate(35.000000, 125.000000)" fill="#FF5960" fill-rule="nonzero">
            <path d="M18.5253165,1.28341463 C18.2549367,1.02268293 17.8855696,0.878780488 17.4855696,0.878780488 C17.0362025,0.878780488 16.5835443,1.06121951 16.2364557,1.38073171 L14.7468354,2.54560976 L14.6888608,2.59634146 C14.3594937,2.91317073 14.2298734,3.35829268 14.3096203,3.80658537 L10.836962,7.05512195 L10.2541772,6.56926829 C10.6718987,4.99536585 10.6205063,2.89878049 9.21164557,1.54146341 C8.18,0.547560976 6.86,0 5.49518987,0 C4.95265823,0 4.4164557,0.0873170732 3.90126582,0.259268293 C3.66531646,0.33804878 3.48455696,0.523414634 3.41797468,0.755365854 C3.35139241,0.987317073 3.40734177,1.23560976 3.56734177,1.4202439 L5.43898734,3.57536585 L5.34683544,4.96146341 L3.79139241,5.13243902 L1.57088608,3.34268293 C1.37924051,3.18804878 1.12126582,3.13414634 0.880506329,3.19878049 C0.639746835,3.26317073 0.447341772,3.43731707 0.36556962,3.66463415 C-0.241012658,5.35219512 0.293417722,7.1697561 1.83189873,8.65097561 C2.66075949,9.45 3.85417722,9.87219512 5.28253165,9.87219512 C5.38708861,9.87219512 5.49240506,9.86707317 5.59772152,9.86219512 C5.54481013,9.90658537 5.49164557,9.9504878 5.44151899,9.99878049 L1.17493671,14.1090244 C-0.00962025316,15.2502439 -0.00962025316,17.1068293 1.17493671,18.2480488 L1.89063291,18.937561 C2.4643038,19.4904878 3.22734177,19.794878 4.03873418,19.794878 C4.85012658,19.794878 5.61316456,19.4904878 6.18683544,18.937561 L10.4531646,14.8270732 C10.6896203,14.5995122 10.8756962,14.3436585 11.0159494,14.0702439 L14.8055696,18.2887805 C14.8177215,18.3021951 14.8303797,18.314878 14.843038,18.327561 C15.2678481,18.7365854 15.9053165,18.9619512 16.6389873,18.9619512 C17.5303797,18.9619512 18.4351899,18.6241463 19,18.0802439 C19.9929114,17.1236585 20.3058228,15.0882927 19.2562025,14.0763415 C19.2427848,14.0639024 19.2298734,14.0517073 19.2159494,14.0407317 L13.6982278,9.44121951 L16.881519,6.28292683 C16.9691139,6.29731707 17.0567089,6.30439024 17.1450633,6.30439024 C17.5263291,6.30439024 17.8782278,6.16707317 18.1364557,5.91853659 L19.3982278,4.42756098 C19.6870886,4.13682927 19.8678481,3.7702439 19.9098734,3.39073171 C19.9587342,2.94634146 19.8091139,2.5204878 19.4994937,2.22243902 L18.5253165,1.28341463 Z M9.37924051,13.792439 L5.11291139,17.9029268 C4.82607595,18.1792683 4.44455696,18.3314634 4.03873418,18.3314634 C3.63291139,18.3314634 3.25164557,18.1792683 2.96455696,17.9029268 L2.24886076,17.2134146 C1.65670886,16.6426829 1.65670886,15.7143902 2.24886076,15.1441463 L6.51544304,11.0334146 C6.80227848,10.7570732 7.18379747,10.604878 7.58936709,10.604878 C7.70860759,10.604878 7.82531646,10.62 7.93848101,10.645122 L9.82151899,12.7414634 C9.82607595,13.1212195 9.67949367,13.5031707 9.37924051,13.792439 Z M17.9255696,17.0456098 C17.6443038,17.3165854 17.1270886,17.4985366 16.638481,17.4985366 C16.3318987,17.4985366 16.0698734,17.4270732 15.9313924,17.3060976 L7.87873418,8.34219512 C7.67696203,8.11756098 7.35392405,8.03268293 7.06227848,8.12756098 C6.49518987,8.31146341 5.87974684,8.40853659 5.28227848,8.40853659 C4.28025316,8.40853659 3.43620253,8.12707317 2.90582278,7.61585366 C2.42582278,7.15341463 1.75164557,6.33536585 1.65088608,5.31536585 L3.06607595,6.45609756 C3.22556962,6.58487805 3.43240506,6.64463415 3.63974684,6.62195122 L6.14987342,6.34585366 C6.51518987,6.30560976 6.79822785,6.01926829 6.82151899,5.66560976 L6.97367089,3.37682927 C6.98607595,3.18926829 6.92329114,3.00463415 6.79822785,2.86073171 L5.58582278,1.46463415 C6.51316456,1.48902439 7.41594937,1.88146341 8.13696203,2.57609756 C9.12886076,3.53195122 9.10734177,5.32219512 8.66734177,6.58121951 C8.56886076,6.86268293 8.65696203,7.17365854 8.89012658,7.36804878 L18.1956962,15.1260976 C18.5331646,15.4819512 18.4534177,16.5368293 17.9255696,17.0456098 Z M18.2939241,3.42317073 L17.1022785,4.83097561 C17.0898734,4.82634146 17.0759494,4.82 17.0607595,4.81121951 L16.5450633,4.51609756 L12.5483544,8.48195122 L11.9896203,8.01634146 L16.1440506,4.1297561 L15.8379747,3.63341463 C15.8291139,3.61829268 15.8220253,3.60487805 15.8177215,3.59317073 L17.2205063,2.49585366 L17.2787342,2.44512195 C17.3544304,2.37268293 17.4301266,2.34756098 17.4772152,2.34341463 L18.4002532,3.23268293 C18.3972152,3.26926829 18.3726582,3.34707317 18.2939241,3.42317073 Z" id="Shape-Copy"></path>
        </g>
        <g id="inspection-copy" transform="translate(35.000000, 155.500000)" fill="#FF5960" fill-rule="nonzero">
            <path d="M19.6693548,11.7146172 C19.6693548,11.7146172 16.7016129,1.16519722 16.6653226,1.1025522 C16.3548387,0.563805104 15.7258065,-0.037587007 14.9556452,0.0501160093 C13.8024194,0.183758701 13.3387097,1.68723898 13.1854839,2.1800464 C13.0443548,2.63109049 13.2862903,3.11554524 13.7258065,3.2575406 C14.1653226,3.4037123 14.6330645,3.15313225 14.7701613,2.70208817 C14.9193548,2.22180974 15.0524194,1.9712297 15.1370968,1.84176334 C15.1532258,1.86264501 17.2177419,9.14617169 17.2177419,9.14617169 C16.6935484,8.92482599 16.125,8.79953596 15.5241935,8.79953596 C13.5846774,8.79953596 11.9314516,10.0858469 11.3225806,11.8691415 C10.8709677,11.6352668 10.3991935,11.5266821 9.91935484,11.5475638 C9.4516129,11.5642691 9.03225806,11.6979118 8.68145161,11.8733179 C8.07258065,10.0858469 6.41532258,8.79953596 4.47580645,8.79953596 C3.86693548,8.79953596 3.29032258,8.92482599 2.76209677,9.15452436 L4.73790323,2.10904872 C4.75403226,2.08816705 4.77016129,2.06728538 4.78629032,2.04640371 C4.87096774,2.17587007 5.00403226,2.42645012 5.15322581,2.90672854 C5.29435484,3.35777262 5.76209677,3.60835267 6.19758065,3.46218097 C6.63306452,3.31600928 6.875,2.83573086 6.73790323,2.38468677 C6.58467742,1.89187935 6.11693548,0.388399072 4.96774194,0.254756381 C4.19758065,0.167053364 3.56451613,0.768445476 3.25806452,1.30719258 C3.22177419,1.36983759 0.25,11.9317865 0.25,11.9317865 C0.25,11.9359629 0.245967742,11.9443155 0.245967742,11.9484919 C0.0967741935,12.4037123 0.0161290323,12.8923434 0.0161290323,13.4018561 C0.0201612903,15.936891 2.02016129,18 4.47580645,18 C6.81451613,18 8.73790323,16.1331787 8.91935484,13.7693735 C9.13306452,13.5730858 9.52419355,13.2849188 9.97580645,13.2682135 C10.3387097,13.2556845 10.7096774,13.4269142 11.0846774,13.7777262 C11.2701613,16.137355 13.1895161,18 15.5241935,18 C17.9798387,18 19.9798387,15.936891 19.9798387,13.4018561 C19.9798387,12.8046404 19.8709677,12.2366589 19.6693548,11.7146172 L19.6693548,11.7146172 Z M4.47580645,16.2835267 C2.93548387,16.2835267 1.68145161,14.9888631 1.68145161,13.4018561 C1.68145161,11.8148492 2.93548387,10.5201856 4.47580645,10.5201856 C6.01612903,10.5201856 7.27016129,11.8148492 7.27016129,13.4018561 L7.27016129,13.4060325 C7.26612903,14.9930394 6.01612903,16.2835267 4.47580645,16.2835267 L4.47580645,16.2835267 Z M15.5241935,16.2835267 C13.983871,16.2835267 12.7298387,14.9888631 12.7298387,13.4018561 C12.7298387,11.8148492 13.983871,10.5201856 15.5241935,10.5201856 C17.0645161,10.5201856 18.3145161,11.8148492 18.3145161,13.4018561 C18.3185484,14.9888631 17.0645161,16.2835267 15.5241935,16.2835267 Z" id="Shape"></path>
        </g>
        <g id="key-2-copy" transform="translate(35.000000, 185.000000)" fill="#FF5960" fill-rule="nonzero">
            <path d="M16.5509767,3.39190698 C16.0986977,2.93925581 15.4971163,2.68986047 14.8572093,2.68986047 C14.2173953,2.68986047 13.615814,2.93925581 13.1635349,3.39181395 C12.7111628,3.84427907 12.4620465,4.44586047 12.4620465,5.08548837 C12.4620465,5.72530233 12.7112558,6.3267907 13.1634419,6.7787907 C13.6157209,7.23125581 14.2171163,7.48046512 14.8569302,7.48046512 C15.4966512,7.48046512 16.0982326,7.23134884 16.5506047,6.77906977 C17.0031628,6.3267907 17.2523721,5.72530233 17.2523721,5.08548837 C17.2523721,4.44595349 17.0032558,3.84437209 16.5509767,3.39190698 Z M15.5642791,5.79218605 C15.3752558,5.98111628 15.124,6.08511628 14.8568372,6.08511628 C14.5898605,6.08511628 14.3389767,5.9812093 14.1499535,5.79218605 C13.9611163,5.60353488 13.8573023,5.35255814 13.8573023,5.08548837 C13.8573023,4.81851163 13.9613023,4.56734884 14.1502326,4.37823256 C14.3390698,4.18930233 14.5901395,4.0852093 14.8571163,4.0852093 C15.124093,4.0852093 15.3750698,4.18930233 15.564093,4.37832558 C15.7529302,4.56725581 15.8569302,4.8184186 15.8569302,5.08548837 C15.8570233,5.35255814 15.7531163,5.60353488 15.5642791,5.79218605 Z" id="Shape"></path>
            <path d="M18.0944186,1.84855814 C15.6473488,-0.598139535 11.6660465,-0.598511628 9.21916279,1.84818605 C7.43469767,3.63348837 6.90269767,6.29265116 7.824,8.60530233 L5.40874419,11.0203721 L3.1975814,11.0203721 C2.81218605,11.0203721 2.49990698,11.3326512 2.49990698,11.7180465 L2.49990698,13.5204651 L0.697674419,13.5204651 C0.31227907,13.5204651 0,13.8327442 0,14.2181395 L0,16.7186047 L0,19.2182326 C0,19.6036279 0.31227907,19.915907 0.697674419,19.915907 L3.19767442,19.915907 C3.38260465,19.915907 3.55990698,19.8425116 3.6907907,19.711814 L11.3032558,12.1054884 C13.6250233,13.0469767 16.2974884,12.52 18.0945116,10.7229767 C20.5408372,8.27646512 20.5408372,4.29544186 18.0944186,1.84855814 Z M17.1077209,9.73637209 C15.615814,11.2284651 13.347907,11.5948837 11.4645581,10.647907 C11.1957209,10.5130233 10.8707907,10.5651163 10.6580465,10.7777674 L2.90883721,18.5206512 L1.39534884,18.5206512 L1.39534884,16.7186977 L1.39534884,14.915907 L3.19767442,14.915907 C3.58297674,14.915907 3.89534884,14.6036279 3.89534884,14.2182326 L3.89534884,12.415814 L5.69776744,12.415814 C5.8827907,12.415814 6.06018605,12.3423256 6.19106977,12.2115349 L9.14948837,9.25330233 C9.36111628,9.04167442 9.41423256,8.71869767 9.28148837,8.4504186 C8.35274419,6.57404651 8.72427907,4.3172093 10.2059535,2.8347907 C12.1087442,0.932372093 15.2046512,0.932651163 17.1077209,2.83525581 C19.0101395,4.73804651 19.0101395,7.83376744 17.1077209,9.73637209 Z" id="Shape"></path>
        </g>
        <g id="Group-13" transform="translate(35.000000, 217.000000)" fill="#FF5960" fill-rule="nonzero">
            <path d="M19.1364562,0.00842105263 L0.822810591,0.00842105263 C0.386965377,0.00842105263 0,0.362105263 0,0.854736842 L0,15.1452632 C0,15.5915789 0.346232179,15.9957895 0.822810591,15.9957895 L19.1405295,15.9957895 C19.6171079,15.9957895 19.9633401,15.5957895 19.9633401,15.1452632 L19.9633401,0.854736842 C19.9592668,0.408421053 19.6130346,0.00842105263 19.1364562,0.00842105263 Z M1.64154786,2.90947368 L6.48065173,7.91157895 L1.64154786,12.9136842 L1.64154786,2.90947368 Z M9.9796334,9.11578947 L2.85132383,1.74736842 L17.107943,1.74736842 L9.9796334,9.11578947 Z M7.64562118,9.11578947 L9.37270876,10.9010526 C9.73523422,11.2757895 10.2240326,11.2715789 10.5824847,10.9010526 L12.2892057,9.13684211 L17.2342159,14.2484211 L2.6802444,14.2484211 L7.64562118,9.11578947 Z M13.4582485,7.93263158 L18.3177189,2.90947368 L18.3177189,12.9557895 L13.4582485,7.93263158 Z" id="message-copy"></path>
        </g>
        <g id="documents-copy" transform="translate(35.000000, 244.000000)" fill="#FF5960" fill-rule="nonzero">
            <path d="M19.655814,6.01183673 L13.0093023,0.233469388 C12.8372093,0.0853061224 12.6093023,0 12.372093,0 L0.976744186,0 C0.451162791,0 0.0279069767,0.408571429 0.0279069767,0.915918367 L0.0279069767,21.0840816 C0.0279069767,21.5914286 0.451162791,22 0.976744186,22 L19.0232558,22 C19.5488372,22 19.972093,21.5914286 19.972093,21.0840816 L19.972093,6.69428571 C19.972093,6.43387755 19.855814,6.18693878 19.655814,6.01183673 L19.655814,6.01183673 Z M13.1395349,2.81510204 L17.6790698,6.76163265 L13.1395349,6.76163265 L13.1395349,2.81510204 L13.1395349,2.81510204 Z M18.0697674,20.1681633 L1.93023256,20.1681633 L1.93023256,1.83183673 L11.2418605,1.83183673 L11.2418605,7.67755102 C11.2418605,8.18489796 11.6651163,8.59346939 12.1906977,8.59346939 L18.0744186,8.59346939 L18.0744186,20.1681633 L18.0697674,20.1681633 Z" id="Shape"></path>
            <path d="M3.6372093,11.9159184 C3.6372093,12.4232653 4.06046512,12.8318367 4.58604651,12.8318367 L15.4139535,12.8318367 C15.9395349,12.8318367 16.3627907,12.4232653 16.3627907,11.9159184 C16.3627907,11.4085714 15.9395349,11 15.4139535,11 L4.58604651,11 C4.06046512,11 3.6372093,11.4085714 3.6372093,11.9159184 L3.6372093,11.9159184 Z" id="Shape"></path>
            <path d="M15.4139535,15.4718367 L4.58604651,15.4718367 C4.06046512,15.4718367 3.6372093,15.8804082 3.6372093,16.3877551 C3.6372093,16.895102 4.06046512,17.3036735 4.58604651,17.3036735 L15.4139535,17.3036735 C15.9395349,17.3036735 16.3627907,16.895102 16.3627907,16.3877551 C16.3627907,15.8804082 15.9395349,15.4718367 15.4139535,15.4718367 Z" id="Shape"></path>
        </g>
        <g id="noun_1665888_cc" transform="translate(36.500000, 274.000000)" fill="#FF5960" fill-rule="nonzero" stroke="#FF5A61" stroke-width="0.4">
            <path d="M15.970625,2.65833333 L7.6690625,0.1375 C7.596875,0.114583333 7.5246875,0.114583333 7.4765625,0.114583333 C7.115625,0.114583333 6.826875,0.389583333 6.826875,0.733333333 L6.826875,2.38535812 L0.721875,2.38535812 C0.3609375,2.38535812 0.048125,2.66035812 0.048125,3.00410812 L0.048125,18.5625 C0.048125,18.90625 0.336875,19.2041667 0.721875,19.2041667 L6.826875,19.2041667 L6.826875,20.8952655 C6.826875,21.2619322 7.1396875,21.5140155 7.4765625,21.5140155 C7.54875,21.5140155 7.6209375,21.5140155 7.6690625,21.4910989 L15.970625,19.3416667 C16.2353125,19.25 16.4278125,19.0208333 16.4278125,18.7458333 L16.4278125,3.25416667 C16.4278125,2.97916667 16.259375,2.75 15.970625,2.65833333 Z M1.4678125,17.875 L1.4678125,3.71452479 L6.826875,3.71452479 L6.826875,17.875 L1.4678125,17.875 Z M15.0321875,18.21875 L8.1984375,19.9098489 L8.1984375,1.69583333 L15.0321875,3.75833333 L15.0321875,18.21875 Z" id="Shape"></path>
            <path d="M10.3218735,12.2604167 C10.7068735,12.2604167 11.0437485,11.9625 11.0437485,11.5729167 L11.0437485,10.4270833 C11.0437485,10.0604167 10.730936,9.73958333 10.3218735,9.73958333 C9.93687347,9.73958333 9.59999847,10.0375 9.59999847,10.4270833 L9.59999847,11.5729167 C9.59999847,11.9395833 9.91281097,12.2604167 10.3218735,12.2604167 Z" id="Shape"></path>
        </g>
    </g>
</svg>