<svg xmlns="http://www.w3.org/2000/svg" xmlns:xlink="http://www.w3.org/1999/xlink" width="15" height="15" viewBox="0 0 15 15"><defs><path id="iewoa" d="M705.75 259.78a.83.83 0 0 1-.57.22.83.83 0 0 1-.59-.24l-3.72-3.74a6.36 6.36 0 0 1-3.6 1.1 6.17 6.17 0 0 1-6.27-6.06 6.17 6.17 0 0 1 6.27-6.06 6.17 6.17 0 0 1 6.28 6.06c0 1.43-.53 2.8-1.48 3.89l3.7 3.71c.31.32.3.82-.02 1.12zm-13.11-8.72a4.56 4.56 0 0 0 4.63 4.47c2.56 0 4.64-2 4.64-4.47a4.56 4.56 0 0 0-4.64-4.48c-2.55 0-4.63 2-4.63 4.48z"/></defs><g><g transform="translate(-691 -245)"><use fill="#dedede" xlink:href="#iewoa"/></g></g></svg>