<svg xmlns="http://www.w3.org/2000/svg" xmlns:xlink="http://www.w3.org/1999/xlink" width="62" height="62" viewBox="0 0 62 62"><defs><path id="whmia" d="M720 249.77a26.68 26.68 0 0 1-18.85-7.8 26.6 26.6 0 0 1-7.9-18.97A26.8 26.8 0 0 1 720 196.24a26.9 26.9 0 0 1 24.14 15.23 26.8 26.8 0 0 1-24.14 38.3zm0-56.77c-16.54 0-30 13.46-30 30s13.46 30 30 30 30-13.46 30-30-13.46-30-30-30z"/><path id="whmib" d="M707.25 215.88a3.38 3.38 0 1 1 6.75 0 3.38 3.38 0 0 1-6.75 0z"/><path id="whmic" d="M726.75 215.88a3.38 3.38 0 1 1 6.75 0 3.38 3.38 0 0 1-6.75 0z"/><path id="whmid" d="M719.94 240.25c6.3 0 12.35-3.27 15.81-8.7l-2.74-1.8a15.54 15.54 0 0 1-14.8 7.1 15.6 15.6 0 0 1-11.22-7.1l-2.74 1.8a18.9 18.9 0 0 0 15.7 8.7z"/></defs><g><g transform="translate(-689 -192)"><g><use fill="#00d29d" xlink:href="#whmia"/><use fill="#fff" fill-opacity="0" stroke="#f7f8f9" stroke-miterlimit="50" stroke-width=".4" xlink:href="#whmia"/></g><g><use fill="#00d29d" xlink:href="#whmib"/><use fill="#fff" fill-opacity="0" stroke="#f7f8f9" stroke-miterlimit="50" stroke-width=".4" xlink:href="#whmib"/></g><g><use fill="#00d29d" xlink:href="#whmic"/><use fill="#fff" fill-opacity="0" stroke="#f7f8f9" stroke-miterlimit="50" stroke-width=".4" xlink:href="#whmic"/></g><g><use fill="#00d29d" xlink:href="#whmid"/><use fill="#fff" fill-opacity="0" stroke="#f7f8f9" stroke-miterlimit="50" stroke-width=".4" xlink:href="#whmid"/></g></g></g></svg>