<?xml version="1.0" encoding="UTF-8"?>
<svg width="33px" height="32px" viewBox="0 0 33 32" version="1.1" xmlns="http://www.w3.org/2000/svg" xmlns:xlink="http://www.w3.org/1999/xlink">
    <!-- Generator: Sketch 50.2 (55047) - http://www.bohemiancoding.com/sketch -->
    <title>browse</title>
    <desc>Created with Sketch.</desc>
    <defs></defs>
    <g id="payments" stroke="none" stroke-width="1" fill="none" fill-rule="evenodd" opacity="0.149999991">
        <g id="Dashboard-add-statements" transform="translate(-704.000000, -520.000000)" fill="#000000" fill-rule="nonzero">
            <g id="dialog-box" transform="translate(499.000000, 230.000000)">
                <g id="browse" transform="translate(65.000000, 268.000000)">
                    <g transform="translate(140.000000, 22.000000)" id="Shape">
                        <path d="M9.78352941,9.91219512 L14.9470588,4.72195122 L14.9470588,21.1512195 C14.9470588,21.8926829 15.5682353,22.5170732 16.3058824,22.5170732 C17.0435294,22.5170732 17.6647059,21.8926829 17.6647059,21.1512195 L17.6647059,4.72195122 L22.8282353,9.91219512 C23.3329412,10.4195122 24.2258824,10.4195122 24.7305882,9.91219512 C25.0023529,9.63902439 25.1188235,9.32682927 25.1188235,8.93658537 C25.1188235,8.54634146 24.9635294,8.23414634 24.7305882,7.96097561 L17.2764706,0.468292683 C17.0435294,0.234146341 16.7329412,0.0780487805 16.3835294,0.0780487805 L16.2670588,0.0390243902 L16.1894118,0.0780487805 C15.8788235,0.117073171 15.5682353,0.234146341 15.3352941,0.468292683 L7.88117647,8 C7.60941176,8.27317073 7.49294118,8.58536585 7.49294118,8.97560976 C7.49294118,9.36585366 7.64823529,9.67804878 7.88117647,9.95121951 C8.38588235,10.4195122 9.27882353,10.4195122 9.78352941,9.91219512 Z"></path>
                        <path d="M31.2529412,17.9121951 C30.5152941,17.9121951 29.8941176,18.5365854 29.8941176,19.2780488 L29.8941176,24.702439 C29.8941176,27.1609756 27.8752941,29.1902439 25.4294118,29.1902439 L7.18235294,29.1902439 C4.73647059,29.1902439 2.71764706,27.1609756 2.71764706,24.702439 L2.71764706,19.2780488 C2.71764706,18.5365854 2.09647059,17.9121951 1.35882353,17.9121951 C0.621176471,17.9121951 0,18.5365854 0,19.2780488 L0,24.702439 C0,28.6829268 3.22235294,31.9219512 7.18235294,31.9219512 L25.4682353,31.9219512 C29.4282353,31.9219512 32.6505882,28.6829268 32.6505882,24.702439 L32.6505882,19.2780488 C32.6117647,18.5365854 32.0294118,17.9121951 31.2529412,17.9121951 Z"></path>
                    </g>
                </g>
            </g>
        </g>
    </g>
</svg>